<svg width="143" height="91" viewBox="0 0 143 91" fill="none" xmlns="http://www.w3.org/2000/svg">
<path d="M124.682 81.749C135.337 75.0694 140.226 64.18 141.88 53.7028C143.705 42.0514 139.496 27.19 128.3 18.5355C117.314 9.9772 99.8827 9.43161 85.7774 6.8724C76.1293 5.06813 66.3792 3.17363 56.6103 1.6163C47.2686 0.0826998 37.258 -0.980742 28.128 1.38685C-7.73227 10.5556 -4.81262 52.4868 17.2669 71.554C30.0449 82.5793 49.6567 86.29 67.2769 89.2135C87.4555 92.3638 108.36 92.0877 124.682 81.749Z" fill="#F3F2ED"/>
<path d="M21.2238 25.921C21.9332 25.9396 22.5025 25.9676 22.9318 26.005C23.3798 26.0423 23.7438 26.0796 24.0238 26.117C24.3225 26.1356 24.6118 26.173 24.8918 26.229C25.6198 26.3036 26.2732 26.4156 26.8518 26.565C27.4305 26.6956 27.9251 26.901 28.3358 27.181C28.7465 27.461 29.0452 27.825 29.2318 28.273C29.4185 28.721 29.4652 29.2996 29.3718 30.009L29.0638 32.893C28.9892 33.4716 29.0078 33.9663 29.1198 34.377C29.2505 34.7876 29.5212 34.9836 29.9318 34.965C30.2865 34.9463 30.5945 34.7596 30.8558 34.405C31.1172 34.0316 31.3692 33.509 31.6118 32.837L31.7518 32.445H32.3958L32.2838 32.809C31.9478 33.9663 31.4718 34.825 30.8558 35.385C30.2398 35.945 29.3998 36.225 28.3358 36.225C27.1598 36.225 26.3198 35.9356 25.8158 35.357C25.3118 34.7596 25.1158 34.0223 25.2278 33.145L25.5638 30.009C25.6572 29.1503 25.6105 28.4596 25.4238 27.937C25.2558 27.3956 24.8452 27.0036 24.1918 26.761C23.5572 26.4996 22.5492 26.369 21.1678 26.369L21.2238 25.921ZM20.8318 26.341L20.9718 25.837H22.0078C23.0718 25.837 24.0052 25.697 24.8078 25.417C25.6292 25.1183 26.3198 24.6983 26.8798 24.157C27.4398 23.6156 27.8598 22.9623 28.1398 22.197C28.4385 21.4316 28.5878 20.573 28.5878 19.621C28.5878 18.5756 28.3545 17.8103 27.8878 17.325C27.4212 16.821 26.6838 16.569 25.6758 16.569C25.0225 16.569 24.5465 16.709 24.2478 16.989C23.9678 17.2503 23.7252 17.7823 23.5198 18.585L19.7118 32.865C19.5625 33.4436 19.4785 33.901 19.4598 34.237C19.4412 34.573 19.5718 34.825 19.8518 34.993C20.1505 35.161 20.6545 35.2543 21.3638 35.273L21.2518 35.833C20.7478 35.7956 20.1412 35.777 19.4318 35.777C18.7225 35.7583 17.9665 35.749 17.1638 35.749C16.3425 35.749 15.5398 35.7583 14.7558 35.777C13.9905 35.777 13.3745 35.7956 12.9078 35.833L13.0198 35.273C13.6545 35.2356 14.1492 35.161 14.5038 35.049C14.8585 34.937 15.1385 34.713 15.3438 34.377C15.5492 34.041 15.7358 33.537 15.9038 32.865L19.5998 18.977C19.7492 18.3983 19.8238 17.941 19.8238 17.605C19.8238 17.2503 19.6838 16.9983 19.4038 16.849C19.1238 16.681 18.6385 16.5876 17.9478 16.569L18.0878 16.009C18.3865 16.0276 18.7598 16.0463 19.2078 16.065C19.6558 16.065 20.1318 16.0743 20.6358 16.093C21.1585 16.093 21.6345 16.093 22.0638 16.093C22.8665 16.093 23.5945 16.0836 24.2478 16.065C24.9198 16.0463 25.5825 16.037 26.2358 16.037C28.3825 16.037 29.9692 16.373 30.9958 17.045C32.0225 17.6983 32.5358 18.669 32.5358 19.957C32.5358 21.2263 32.0878 22.337 31.1918 23.289C30.3145 24.241 29.0825 24.9876 27.4958 25.529C25.9092 26.0516 24.0612 26.313 21.9518 26.313L20.8318 26.341Z" fill="#282828"/>
<path d="M44.0246 26.145C43.3526 28.0116 42.7086 29.589 42.0926 30.877C41.4766 32.165 40.8606 33.201 40.2446 33.985C39.6472 34.769 39.0312 35.3383 38.3966 35.693C37.7806 36.0476 37.1366 36.225 36.4646 36.225C35.6432 36.225 35.0459 36.0383 34.6726 35.665C34.2992 35.2916 34.1126 34.7876 34.1126 34.153C34.1126 33.5183 34.2432 32.7996 34.5046 31.997L37.2206 23.821C37.4072 23.261 37.4726 22.8316 37.4166 22.533C37.3606 22.2343 37.1459 22.085 36.7726 22.085C36.4179 22.085 36.0632 22.281 35.7086 22.673C35.3726 23.065 35.0086 23.821 34.6166 24.941L34.2526 25.977H33.7206L34.4206 23.933C34.7006 23.149 35.0272 22.5516 35.4006 22.141C35.7926 21.7303 36.1939 21.4503 36.6046 21.301C37.0339 21.133 37.4352 21.049 37.8086 21.049C38.6299 21.049 39.1712 21.245 39.4326 21.637C39.7126 22.0103 39.8152 22.4956 39.7406 23.093C39.6846 23.6903 39.5446 24.3156 39.3206 24.969L36.6606 32.977C36.1379 34.545 36.3432 35.329 37.2766 35.329C37.7246 35.329 38.2006 35.133 38.7046 34.741C39.2086 34.3303 39.7219 33.7516 40.2446 33.005C40.7672 32.2396 41.2806 31.3343 41.7846 30.289C42.3072 29.225 42.8019 28.049 43.2686 26.761C43.7539 25.4543 44.1926 24.0543 44.5846 22.561L44.0246 26.145ZM43.9406 33.453C43.8099 33.957 43.7446 34.377 43.7446 34.713C43.7632 35.0303 43.9592 35.189 44.3326 35.189C44.7432 35.189 45.1166 34.9743 45.4526 34.545C45.8072 34.097 46.1619 33.3596 46.5166 32.333L46.8806 31.297H47.4126L46.7126 33.341C46.4512 34.125 46.1246 34.7223 45.7326 35.133C45.3592 35.5436 44.9579 35.8236 44.5286 35.973C44.1179 36.141 43.7166 36.225 43.3246 36.225C43.0259 36.225 42.7459 36.1596 42.4846 36.029C42.2232 35.8983 42.0272 35.7116 41.8966 35.469C41.7472 35.1516 41.6912 34.7503 41.7286 34.265C41.7846 33.7796 41.9152 33.1263 42.1206 32.305L44.8646 21.441C45.3312 21.4223 45.7792 21.385 46.2086 21.329C46.6566 21.273 47.0579 21.1796 47.4126 21.049L43.9406 33.453Z" fill="#282828"/>
<path d="M54.0593 21.021C54.806 21.021 55.4406 21.1423 55.9633 21.385C56.486 21.6276 56.8686 21.8516 57.1113 22.057C57.7273 22.561 58.1006 22.225 58.2313 21.049H58.8753C58.838 21.5716 58.81 22.197 58.7913 22.925C58.7726 23.6343 58.7633 24.5956 58.7633 25.809H58.1193C58.0073 25.1183 57.8113 24.4463 57.5313 23.793C57.27 23.1396 56.878 22.6076 56.3553 22.197C55.8326 21.7676 55.1513 21.553 54.3113 21.553C53.658 21.553 53.1073 21.7396 52.6593 22.113C52.23 22.4676 52.0153 22.9996 52.0153 23.709C52.0153 24.269 52.1833 24.7543 52.5193 25.165C52.8553 25.557 53.294 25.9303 53.8353 26.285C54.3766 26.621 54.9646 26.9943 55.5993 27.405C56.3086 27.853 56.9526 28.3103 57.5313 28.777C58.11 29.2436 58.5673 29.757 58.9033 30.317C59.258 30.877 59.4353 31.5396 59.4353 32.305C59.4353 33.1636 59.2113 33.8823 58.7633 34.461C58.3153 35.0396 57.7273 35.4783 56.9993 35.777C56.29 36.0756 55.506 36.225 54.6473 36.225C54.2366 36.225 53.8446 36.1876 53.4713 36.113C53.1166 36.057 52.7713 35.9636 52.4353 35.833C52.2486 35.7396 52.0526 35.6276 51.8473 35.497C51.6606 35.3663 51.474 35.2263 51.2873 35.077C51.1006 34.9276 50.9326 34.937 50.7833 35.105C50.634 35.2543 50.522 35.5623 50.4473 36.029H49.8033C49.8406 35.4316 49.8686 34.7036 49.8873 33.845C49.906 32.9863 49.9153 31.8476 49.9153 30.429H50.5593C50.69 31.4743 50.8766 32.389 51.1193 33.173C51.362 33.957 51.7446 34.573 52.2673 35.021C52.79 35.4503 53.518 35.665 54.4513 35.665C54.8246 35.665 55.198 35.581 55.5713 35.413C55.9633 35.245 56.29 34.965 56.5513 34.573C56.8126 34.181 56.9433 33.6583 56.9433 33.005C56.9433 32.1836 56.6446 31.5116 56.0473 30.989C55.45 30.4663 54.694 29.9156 53.7793 29.337C53.1073 28.9076 52.4726 28.4783 51.8753 28.049C51.2966 27.6196 50.8206 27.1343 50.4473 26.593C50.0926 26.0516 49.9153 25.3983 49.9153 24.633C49.9153 23.793 50.102 23.1116 50.4753 22.589C50.8673 22.0476 51.3806 21.6556 52.0153 21.413C52.65 21.1516 53.3313 21.021 54.0593 21.021Z" fill="#282828"/>
<path d="M66.2747 20.965C67.0587 20.965 67.7307 21.077 68.2907 21.301C68.8507 21.525 69.2614 21.721 69.5227 21.889C70.1574 22.3556 70.5401 22.057 70.6707 20.993H71.2867C71.2494 21.5343 71.2214 22.1783 71.2027 22.925C71.1841 23.653 71.1747 24.633 71.1747 25.865H70.5587C70.4654 25.1743 70.2881 24.5023 70.0267 23.849C69.7654 23.1956 69.3827 22.6543 68.8787 22.225C68.3747 21.777 67.7121 21.553 66.8907 21.553C66.3121 21.553 65.8267 21.721 65.4347 22.057C65.0614 22.393 64.8747 22.869 64.8747 23.485C64.8747 24.045 65.0427 24.5396 65.3787 24.969C65.7147 25.3796 66.1441 25.7716 66.6667 26.145C67.2081 26.4996 67.7681 26.8916 68.3467 27.321C69.0187 27.769 69.6161 28.2263 70.1387 28.693C70.6614 29.141 71.0814 29.645 71.3987 30.205C71.7161 30.7463 71.8747 31.3903 71.8747 32.137C71.8747 32.9956 71.6321 33.733 71.1467 34.349C70.6801 34.9463 70.0547 35.413 69.2707 35.749C68.5054 36.0663 67.6561 36.225 66.7227 36.225C66.2187 36.225 65.7614 36.1783 65.3507 36.085C64.9401 35.9916 64.5761 35.8703 64.2587 35.721C64.0161 35.5903 63.7921 35.469 63.5867 35.357C63.4001 35.245 63.2041 35.1516 62.9987 35.077C62.8121 34.9836 62.6441 35.021 62.4947 35.189C62.3641 35.357 62.2614 35.637 62.1867 36.029H61.5707C61.6081 35.4316 61.6361 34.7036 61.6547 33.845C61.6734 32.9863 61.6827 31.8476 61.6827 30.429H62.2987C62.4294 31.4556 62.6254 32.361 62.8867 33.145C63.1667 33.9103 63.5681 34.517 64.0907 34.965C64.6134 35.3943 65.2854 35.609 66.1067 35.609C66.4614 35.609 66.7974 35.5343 67.1147 35.385C67.4507 35.2356 67.7214 35.0023 67.9267 34.685C68.1507 34.3676 68.2627 33.9383 68.2627 33.397C68.2627 32.5756 67.9827 31.8943 67.4227 31.353C66.8627 30.8116 66.1627 30.233 65.3227 29.617C64.6881 29.1503 64.0907 28.693 63.5307 28.245C62.9894 27.797 62.5414 27.293 62.1867 26.733C61.8507 26.173 61.6827 25.5103 61.6827 24.745C61.6827 23.905 61.8974 23.2143 62.3267 22.673C62.7561 22.113 63.3161 21.693 64.0067 21.413C64.7161 21.1143 65.4721 20.965 66.2747 20.965Z" fill="#282828"/>
<path d="M80.4996 20.909C82.1423 20.909 83.4303 21.3943 84.3636 22.365C85.3156 23.317 85.7916 24.9223 85.7916 27.181H77.0276L76.9716 26.649H81.7036C81.7223 25.7343 81.6849 24.8943 81.5916 24.129C81.4983 23.345 81.3489 22.7196 81.1436 22.253C80.9383 21.7863 80.6583 21.553 80.3036 21.553C79.7996 21.553 79.3889 21.9543 79.0716 22.757C78.7543 23.541 78.5489 24.8943 78.4556 26.817L78.5676 27.041C78.5489 27.2276 78.5396 27.4143 78.5396 27.601C78.5396 27.7876 78.5396 27.9836 78.5396 28.189C78.5396 29.4956 78.6983 30.513 79.0156 31.241C79.3516 31.969 79.7623 32.473 80.2476 32.753C80.7516 33.033 81.2556 33.173 81.7596 33.173C82.0209 33.173 82.3289 33.1356 82.6836 33.061C83.0569 32.9863 83.4583 32.8183 83.8876 32.557C84.3169 32.277 84.7369 31.857 85.1476 31.297L85.6236 31.465C85.3996 32.2116 85.0356 32.9583 84.5316 33.705C84.0463 34.433 83.4116 35.0396 82.6276 35.525C81.8436 35.9916 80.8916 36.225 79.7716 36.225C78.5769 36.225 77.4849 35.9823 76.4956 35.497C75.5249 35.0116 74.7503 34.209 74.1716 33.089C73.5929 31.969 73.3036 30.4663 73.3036 28.581C73.3036 26.789 73.6209 25.333 74.2556 24.213C74.8903 23.0743 75.7489 22.2436 76.8316 21.721C77.9329 21.1796 79.1556 20.909 80.4996 20.909Z" fill="#282828"/>
<path d="M88.8136 33.453C88.6643 33.9943 88.6176 34.4236 88.6736 34.741C88.7296 35.0396 88.935 35.189 89.2896 35.189C89.663 35.189 90.0083 34.9836 90.3256 34.573C90.6616 34.1436 91.0163 33.397 91.3896 32.333L91.7536 31.297H92.2856L91.5856 33.341C91.343 34.0503 91.0443 34.6196 90.6896 35.049C90.3536 35.4596 89.9803 35.7583 89.5696 35.945C89.159 36.1316 88.711 36.225 88.2256 36.225C87.6096 36.225 87.1523 36.1036 86.8536 35.861C86.5736 35.637 86.3963 35.329 86.3216 34.937C86.2656 34.545 86.275 34.125 86.3496 33.677C86.443 33.2103 86.555 32.753 86.6856 32.305L91.2496 17.157C91.4363 16.5223 91.4176 16.0556 91.1936 15.757C90.9696 15.4583 90.4003 15.309 89.4856 15.309L89.6816 14.721C90.7083 14.7023 91.6136 14.5996 92.3976 14.413C93.1816 14.2076 93.9376 13.9276 94.6656 13.573L88.8136 33.453Z" fill="#282828"/>
<path d="M96.0193 33.453C95.8699 33.9943 95.8233 34.4236 95.8793 34.741C95.9353 35.0396 96.1406 35.189 96.4953 35.189C96.8686 35.189 97.2139 34.9836 97.5313 34.573C97.8673 34.1436 98.2219 33.397 98.5953 32.333L98.9593 31.297H99.4913L98.7913 33.341C98.5486 34.0503 98.2499 34.6196 97.8953 35.049C97.5593 35.4596 97.1859 35.7583 96.7753 35.945C96.3646 36.1316 95.9166 36.225 95.4313 36.225C94.8153 36.225 94.3579 36.1036 94.0593 35.861C93.7793 35.637 93.6019 35.329 93.5273 34.937C93.4713 34.545 93.4806 34.125 93.5553 33.677C93.6486 33.2103 93.7606 32.753 93.8913 32.305L98.4553 17.157C98.6419 16.5223 98.6233 16.0556 98.3993 15.757C98.1753 15.4583 97.6059 15.309 96.6913 15.309L96.8873 14.721C97.9139 14.7023 98.8193 14.5996 99.6033 14.413C100.387 14.2076 101.143 13.9276 101.871 13.573L96.0193 33.453Z" fill="#282828"/>
<path d="M21.1502 69.833L13.9861 49.79H18.3748L23.4471 64.624L28.3553 49.79H32.6483L25.4705 69.833H21.1502Z" fill="#282828"/>
<path d="M33.6058 53.3447V49.79H37.4476V53.3447H33.6058ZM33.6058 69.833V55.3134H37.4476V69.833H33.6058Z" fill="#282828"/>
<path d="M40.2509 69.833V49.79H42.2607V69.833H40.2509Z" fill="#282828"/>
<path d="M44.8042 69.833V49.79H46.814V69.833H44.8042Z" fill="#282828"/>
<path d="M58.6543 68.0283C57.7976 68.7666 56.9727 69.3089 56.1797 69.6552C55.3868 69.9925 54.5391 70.1611 53.6368 70.1611C52.2969 70.1611 51.2168 69.7692 50.3965 68.9853C49.5762 68.1923 49.1661 67.1806 49.1661 65.9502C49.1661 65.139 49.3484 64.4235 49.7129 63.8037C50.0866 63.1748 50.5788 62.6735 51.1895 62.2998C51.8002 61.917 52.5476 61.6435 53.4317 61.4795C53.9877 61.3701 55.0404 61.2835 56.5899 61.2197C58.1485 61.1559 59.265 60.9918 59.9395 60.7275C60.1309 60.053 60.2266 59.4925 60.2266 59.0459C60.2266 58.4716 60.017 58.0205 59.5977 57.6923C59.0235 57.2366 58.1849 57.0088 57.0821 57.0088C56.043 57.0088 55.1908 57.2412 54.5254 57.706C53.8692 58.1617 53.3907 58.8134 53.0899 59.6611L50.5879 59.4423C51.0984 58.0022 51.905 56.8994 53.0079 56.1338C54.1198 55.3681 55.5189 54.9853 57.2051 54.9853C59.0007 54.9853 60.4226 55.4137 61.4708 56.2705C62.2728 56.9085 62.6739 57.7379 62.6739 58.7588C62.6739 59.5335 62.5599 60.4313 62.3321 61.4521L61.5254 65.0615C61.2702 66.2099 61.1426 67.1442 61.1426 67.8642C61.1426 68.3199 61.2429 68.9762 61.4434 69.833H58.9415C58.8047 69.359 58.709 68.7574 58.6543 68.0283ZM59.5704 62.4775C59.224 62.6142 58.8503 62.719 58.4493 62.792C58.0573 62.8649 57.3965 62.9423 56.4668 63.0244C55.0267 63.152 54.0105 63.316 53.418 63.5166C52.8256 63.708 52.379 64.0179 52.0782 64.4463C51.7774 64.8746 51.627 65.3486 51.627 65.8681C51.627 66.5608 51.864 67.1305 52.3379 67.5771C52.821 68.0237 53.5046 68.247 54.3887 68.247C55.209 68.247 55.9974 68.0328 56.754 67.6045C57.5105 67.167 58.1075 66.5608 58.545 65.7861C58.9825 65.0114 59.3243 63.9085 59.5704 62.4775Z" fill="#282828"/>
<path d="M63.6588 65.8134L69.1822 65.2939C69.4101 65.9502 69.7291 66.4196 70.1393 66.7021C70.5494 66.9847 71.0963 67.1259 71.7799 67.1259C72.5273 67.1259 73.1061 66.9664 73.5162 66.6474C73.8352 66.4104 73.9947 66.1142 73.9947 65.7588C73.9947 65.3577 73.7851 65.0478 73.3658 64.8291C73.0651 64.6741 72.2675 64.4827 70.9733 64.2548C69.041 63.9176 67.6966 63.6077 66.9401 63.3252C66.1927 63.0335 65.5592 62.5459 65.0397 61.8623C64.5292 61.1787 64.274 60.3994 64.274 59.5244C64.274 58.5673 64.552 57.7425 65.108 57.0498C65.664 56.3571 66.4296 55.8421 67.4049 55.5048C68.3802 55.1585 69.6881 54.9853 71.3287 54.9853C73.0605 54.9853 74.3365 55.1175 75.1569 55.3818C75.9863 55.6461 76.6744 56.0563 77.2213 56.6123C77.7773 57.1683 78.2376 57.9202 78.6022 58.8681L73.3248 59.3877C73.1881 58.9228 72.9602 58.581 72.6412 58.3623C72.2037 58.0706 71.6751 57.9248 71.0553 57.9248C70.4264 57.9248 69.9661 58.0387 69.6744 58.2666C69.3919 58.4853 69.2506 58.7542 69.2506 59.0732C69.2506 59.4287 69.4329 59.6976 69.7975 59.8798C70.1621 60.0621 70.955 60.2262 72.1764 60.372C74.0266 60.5817 75.4029 60.8733 76.3053 61.247C77.2076 61.6207 77.8958 62.1539 78.3697 62.8466C78.8528 63.5393 79.0944 64.3004 79.0944 65.1298C79.0944 65.9684 78.8391 66.7841 78.3287 67.5771C77.8274 68.3701 77.0299 69.0035 75.9361 69.4775C74.8515 69.9423 73.3704 70.1748 71.4928 70.1748C68.8404 70.1748 66.9492 69.7965 65.819 69.04C64.6979 68.2835 63.9778 67.208 63.6588 65.8134Z" fill="#282828"/>
<path d="M88.0773 65.2119L91.2082 65.8545C90.7889 67.3128 90.1372 68.3974 89.2531 69.1084C88.369 69.8102 87.2935 70.1611 86.0265 70.1611C84.2674 70.1611 82.9093 69.5732 81.9523 68.3974C80.8221 67.0302 80.257 65.1162 80.257 62.6552C80.257 60.2308 80.8267 58.2893 81.966 56.831C82.9321 55.6005 84.1808 54.9853 85.7121 54.9853C87.4165 54.9853 88.7518 55.6142 89.7179 56.872C90.8299 58.3121 91.3859 60.4358 91.3859 63.2431L91.3722 63.6806H83.4836C83.5018 64.8291 83.757 65.7177 84.2492 66.3466C84.7505 66.9755 85.3521 67.29 86.0539 67.29C87.0656 67.29 87.7401 66.5973 88.0773 65.2119ZM88.2551 61.3291C88.2277 60.1989 87.9862 59.3512 87.5304 58.7861C87.0747 58.2119 86.5324 57.9248 85.9035 57.9248C85.2381 57.9248 84.6776 58.221 84.2218 58.8134C83.757 59.415 83.5291 60.2535 83.5383 61.3291H88.2551Z" fill="#282828"/>
<path d="M92.6579 69.833L95.6931 55.3134H97.9353L97.4021 57.8427C98.3773 56.8492 99.2888 56.1246 100.136 55.6689C100.984 55.2132 101.85 54.9853 102.734 54.9853C103.91 54.9853 104.83 55.3043 105.496 55.9423C106.17 56.5804 106.508 57.4326 106.508 58.499C106.508 59.0367 106.389 59.8844 106.152 61.042L104.306 69.833H101.832L103.76 60.6318C103.951 59.7386 104.047 59.0778 104.047 58.6494C104.047 58.1663 103.878 57.7744 103.541 57.4736C103.213 57.1728 102.734 57.0224 102.105 57.0224C100.838 57.0224 99.7081 57.4782 98.7146 58.3896C97.7302 59.3011 97.0056 60.8642 96.5408 63.0791L95.1326 69.833H92.6579ZM97.3884 53.1259C97.6892 51.9137 98.0583 51.1025 98.4958 50.6923C98.9425 50.2731 99.4984 50.0634 100.164 50.0634C100.465 50.0634 100.756 50.0999 101.039 50.1728C101.33 50.2457 101.832 50.4417 102.543 50.7607C103.254 51.0706 103.741 51.2255 104.006 51.2255C104.215 51.2255 104.402 51.1526 104.566 51.0068C104.73 50.8518 104.867 50.5647 104.976 50.1455H106.631C106.539 51.0843 106.234 51.818 105.715 52.3466C105.204 52.8753 104.612 53.1396 103.937 53.1396C103.573 53.1396 103.112 53.0211 102.556 52.7841C101.299 52.2373 100.524 51.9638 100.232 51.9638C99.9405 51.9638 99.699 52.0595 99.5076 52.2509C99.3161 52.4332 99.1794 52.7249 99.0974 53.1259H97.3884Z" fill="#282828"/>
<path d="M107.684 62.5732C107.684 59.8844 108.431 57.8929 109.926 56.5986C111.175 55.5231 112.697 54.9853 114.492 54.9853C116.489 54.9853 118.12 55.6416 119.387 56.9541C120.654 58.2575 121.287 60.0621 121.287 62.3681C121.287 64.2366 121.005 65.7086 120.44 66.7841C119.884 67.8505 119.068 68.68 117.992 69.2724C116.926 69.8649 115.759 70.1611 114.492 70.1611C112.46 70.1611 110.815 69.5094 109.557 68.206C108.308 66.9026 107.684 65.025 107.684 62.5732ZM110.213 62.5732C110.213 64.4326 110.619 65.8271 111.43 66.7568C112.241 67.6774 113.262 68.1377 114.492 68.1377C115.714 68.1377 116.73 67.6728 117.541 66.7431C118.352 65.8134 118.758 64.3961 118.758 62.4912C118.758 60.6956 118.348 59.3375 117.528 58.417C116.716 57.4873 115.705 57.0224 114.492 57.0224C113.262 57.0224 112.241 57.4827 111.43 58.4033C110.619 59.3239 110.213 60.7138 110.213 62.5732Z" fill="#282828"/>
<path d="M123.598 69.833V55.3134H125.813V57.5146C126.378 56.4847 126.898 55.8056 127.372 55.4775C127.855 55.1494 128.384 54.9853 128.958 54.9853C129.787 54.9853 130.63 55.2496 131.487 55.7783L130.64 58.0615C130.038 57.706 129.436 57.5283 128.835 57.5283C128.297 57.5283 127.814 57.6923 127.386 58.0205C126.957 58.3395 126.652 58.7861 126.47 59.3603C126.196 60.2353 126.059 61.1923 126.059 62.2314V69.833H123.598Z" fill="#282828"/>
</svg>
