<svg width="147" height="97" viewBox="0 0 147 97" fill="none" xmlns="http://www.w3.org/2000/svg">
<path d="M126.416 83.4923L126.414 83.4936C110.25 93.7324 89.4995 94.0314 69.3562 90.8869C51.7078 87.9586 32.2463 84.2599 19.5933 73.3425C8.67225 63.9113 2.48708 48.8148 3.46854 34.9609C4.44717 21.1469 12.5457 8.56536 30.2516 4.0383L30.2533 4.03787C39.2735 1.69875 49.193 2.74406 58.529 4.27673L58.5313 4.27709C66.6079 5.56464 74.6711 7.08275 82.6822 8.59106C84.3522 8.9055 86.02 9.21951 87.6852 9.53092L87.6879 9.5314C90.7714 10.0909 94.013 10.5543 97.3003 11.0244C97.7847 11.0936 98.27 11.163 98.7559 11.2329C102.545 11.7776 106.377 12.3514 110.108 13.1113C117.579 14.6325 124.592 16.8895 129.993 21.097L129.994 21.0981C141.024 29.624 145.187 44.2918 143.386 55.7922C141.746 66.1791 136.909 76.914 126.416 83.4923Z" fill="#282828" stroke="#F3F2ED"/>
<path d="M23.2242 28.088C23.9335 28.1067 24.5029 28.1347 24.9322 28.172C25.3802 28.2093 25.7442 28.2467 26.0242 28.284C26.3229 28.3027 26.6122 28.34 26.8922 28.396C27.6202 28.4707 28.2735 28.5827 28.8522 28.732C29.4309 28.8627 29.9255 29.068 30.3362 29.348C30.7469 29.628 31.0455 29.992 31.2322 30.44C31.4189 30.888 31.4655 31.4667 31.3722 32.176L31.0642 35.06C30.9895 35.6387 31.0082 36.1333 31.1202 36.544C31.2509 36.9547 31.5215 37.1507 31.9322 37.132C32.2869 37.1133 32.5949 36.9267 32.8562 36.572C33.1175 36.1987 33.3695 35.676 33.6122 35.004L33.7522 34.612H34.3962L34.2842 34.976C33.9482 36.1333 33.4722 36.992 32.8562 37.552C32.2402 38.112 31.4002 38.392 30.3362 38.392C29.1602 38.392 28.3202 38.1027 27.8162 37.524C27.3122 36.9267 27.1162 36.1893 27.2282 35.312L27.5642 32.176C27.6575 31.3173 27.6109 30.6267 27.4242 30.104C27.2562 29.5627 26.8455 29.1707 26.1922 28.928C25.5575 28.6667 24.5495 28.536 23.1682 28.536L23.2242 28.088ZM22.8322 28.508L22.9722 28.004H24.0082C25.0722 28.004 26.0055 27.864 26.8082 27.584C27.6295 27.2853 28.3202 26.8653 28.8802 26.324C29.4402 25.7827 29.8602 25.1293 30.1402 24.364C30.4389 23.5987 30.5882 22.74 30.5882 21.788C30.5882 20.7427 30.3549 19.9773 29.8882 19.492C29.4215 18.988 28.6842 18.736 27.6762 18.736C27.0229 18.736 26.5469 18.876 26.2482 19.156C25.9682 19.4173 25.7255 19.9493 25.5202 20.752L21.7122 35.032C21.5629 35.6107 21.4789 36.068 21.4602 36.404C21.4415 36.74 21.5722 36.992 21.8522 37.16C22.1509 37.328 22.6549 37.4213 23.3642 37.44L23.2522 38C22.7482 37.9627 22.1415 37.944 21.4322 37.944C20.7229 37.9253 19.9669 37.916 19.1642 37.916C18.3429 37.916 17.5402 37.9253 16.7562 37.944C15.9909 37.944 15.3749 37.9627 14.9082 38L15.0202 37.44C15.6549 37.4027 16.1495 37.328 16.5042 37.216C16.8589 37.104 17.1389 36.88 17.3442 36.544C17.5495 36.208 17.7362 35.704 17.9042 35.032L21.6002 21.144C21.7495 20.5653 21.8242 20.108 21.8242 19.772C21.8242 19.4173 21.6842 19.1653 21.4042 19.016C21.1242 18.848 20.6389 18.7547 19.9482 18.736L20.0882 18.176C20.3869 18.1947 20.7602 18.2133 21.2082 18.232C21.6562 18.232 22.1322 18.2413 22.6362 18.26C23.1589 18.26 23.6349 18.26 24.0642 18.26C24.8669 18.26 25.5949 18.2507 26.2482 18.232C26.9202 18.2133 27.5829 18.204 28.2362 18.204C30.3829 18.204 31.9695 18.54 32.9962 19.212C34.0229 19.8653 34.5362 20.836 34.5362 22.124C34.5362 23.3933 34.0882 24.504 33.1922 25.456C32.3149 26.408 31.0829 27.1547 29.4962 27.696C27.9095 28.2187 26.0615 28.48 23.9522 28.48L22.8322 28.508Z" fill="#F3F2ED"/>
<path d="M46.025 28.312C45.353 30.1787 44.709 31.756 44.093 33.044C43.477 34.332 42.861 35.368 42.245 36.152C41.6476 36.936 41.0316 37.5053 40.397 37.86C39.781 38.2147 39.137 38.392 38.465 38.392C37.6436 38.392 37.0463 38.2053 36.673 37.832C36.2996 37.4587 36.113 36.9547 36.113 36.32C36.113 35.6853 36.2436 34.9667 36.505 34.164L39.221 25.988C39.4076 25.428 39.473 24.9987 39.417 24.7C39.361 24.4013 39.1463 24.252 38.773 24.252C38.4183 24.252 38.0636 24.448 37.709 24.84C37.373 25.232 37.009 25.988 36.617 27.108L36.253 28.144H35.721L36.421 26.1C36.701 25.316 37.0276 24.7187 37.401 24.308C37.793 23.8973 38.1943 23.6173 38.605 23.468C39.0343 23.3 39.4356 23.216 39.809 23.216C40.6303 23.216 41.1716 23.412 41.433 23.804C41.713 24.1773 41.8156 24.6627 41.741 25.26C41.685 25.8573 41.545 26.4827 41.321 27.136L38.661 35.144C38.1383 36.712 38.3436 37.496 39.277 37.496C39.725 37.496 40.201 37.3 40.705 36.908C41.209 36.4973 41.7223 35.9187 42.245 35.172C42.7676 34.4067 43.281 33.5013 43.785 32.456C44.3076 31.392 44.8023 30.216 45.269 28.928C45.7543 27.6213 46.193 26.2213 46.585 24.728L46.025 28.312ZM45.941 35.62C45.8103 36.124 45.745 36.544 45.745 36.88C45.7636 37.1973 45.9596 37.356 46.333 37.356C46.7436 37.356 47.117 37.1413 47.453 36.712C47.8076 36.264 48.1623 35.5267 48.517 34.5L48.881 33.464H49.413L48.713 35.508C48.4516 36.292 48.125 36.8893 47.733 37.3C47.3596 37.7107 46.9583 37.9907 46.529 38.14C46.1183 38.308 45.717 38.392 45.325 38.392C45.0263 38.392 44.7463 38.3267 44.485 38.196C44.2236 38.0653 44.0276 37.8787 43.897 37.636C43.7476 37.3187 43.6916 36.9173 43.729 36.432C43.785 35.9467 43.9156 35.2933 44.121 34.472L46.865 23.608C47.3316 23.5893 47.7796 23.552 48.209 23.496C48.657 23.44 49.0583 23.3467 49.413 23.216L45.941 35.62Z" fill="#F3F2ED"/>
<path d="M56.0597 23.188C56.8063 23.188 57.441 23.3093 57.9637 23.552C58.4863 23.7947 58.869 24.0187 59.1117 24.224C59.7277 24.728 60.101 24.392 60.2317 23.216H60.8757C60.8383 23.7387 60.8103 24.364 60.7917 25.092C60.773 25.8013 60.7637 26.7627 60.7637 27.976H60.1197C60.0077 27.2853 59.8117 26.6133 59.5317 25.96C59.2703 25.3067 58.8783 24.7747 58.3557 24.364C57.833 23.9347 57.1517 23.72 56.3117 23.72C55.6583 23.72 55.1077 23.9067 54.6597 24.28C54.2303 24.6347 54.0157 25.1667 54.0157 25.876C54.0157 26.436 54.1837 26.9213 54.5197 27.332C54.8557 27.724 55.2943 28.0973 55.8357 28.452C56.377 28.788 56.965 29.1613 57.5997 29.572C58.309 30.02 58.953 30.4773 59.5317 30.944C60.1103 31.4107 60.5677 31.924 60.9037 32.484C61.2583 33.044 61.4357 33.7067 61.4357 34.472C61.4357 35.3307 61.2117 36.0493 60.7637 36.628C60.3157 37.2067 59.7277 37.6453 58.9997 37.944C58.2903 38.2427 57.5063 38.392 56.6477 38.392C56.237 38.392 55.845 38.3547 55.4717 38.28C55.117 38.224 54.7717 38.1307 54.4357 38C54.249 37.9067 54.053 37.7947 53.8477 37.664C53.661 37.5333 53.4743 37.3933 53.2877 37.244C53.101 37.0947 52.933 37.104 52.7837 37.272C52.6343 37.4213 52.5223 37.7293 52.4477 38.196H51.8037C51.841 37.5987 51.869 36.8707 51.8877 36.012C51.9063 35.1533 51.9157 34.0147 51.9157 32.596H52.5597C52.6903 33.6413 52.877 34.556 53.1197 35.34C53.3623 36.124 53.745 36.74 54.2677 37.188C54.7903 37.6173 55.5183 37.832 56.4517 37.832C56.825 37.832 57.1983 37.748 57.5717 37.58C57.9637 37.412 58.2903 37.132 58.5517 36.74C58.813 36.348 58.9437 35.8253 58.9437 35.172C58.9437 34.3507 58.645 33.6787 58.0477 33.156C57.4503 32.6333 56.6943 32.0827 55.7797 31.504C55.1077 31.0747 54.473 30.6453 53.8757 30.216C53.297 29.7867 52.821 29.3013 52.4477 28.76C52.093 28.2187 51.9157 27.5653 51.9157 26.8C51.9157 25.96 52.1023 25.2787 52.4757 24.756C52.8677 24.2147 53.381 23.8227 54.0157 23.58C54.6503 23.3187 55.3317 23.188 56.0597 23.188Z" fill="#F3F2ED"/>
<path d="M68.2751 23.132C69.0591 23.132 69.7311 23.244 70.2911 23.468C70.8511 23.692 71.2618 23.888 71.5231 24.056C72.1578 24.5227 72.5404 24.224 72.6711 23.16H73.2871C73.2498 23.7013 73.2218 24.3453 73.2031 25.092C73.1844 25.82 73.1751 26.8 73.1751 28.032H72.5591C72.4658 27.3413 72.2884 26.6693 72.0271 26.016C71.7658 25.3627 71.3831 24.8213 70.8791 24.392C70.3751 23.944 69.7124 23.72 68.8911 23.72C68.3124 23.72 67.8271 23.888 67.4351 24.224C67.0618 24.56 66.8751 25.036 66.8751 25.652C66.8751 26.212 67.0431 26.7067 67.3791 27.136C67.7151 27.5467 68.1444 27.9387 68.6671 28.312C69.2084 28.6667 69.7684 29.0587 70.3471 29.488C71.0191 29.936 71.6164 30.3933 72.1391 30.86C72.6618 31.308 73.0818 31.812 73.3991 32.372C73.7164 32.9133 73.8751 33.5573 73.8751 34.304C73.8751 35.1627 73.6324 35.9 73.1471 36.516C72.6804 37.1133 72.0551 37.58 71.2711 37.916C70.5058 38.2333 69.6564 38.392 68.7231 38.392C68.2191 38.392 67.7618 38.3453 67.3511 38.252C66.9404 38.1587 66.5764 38.0373 66.2591 37.888C66.0164 37.7573 65.7924 37.636 65.5871 37.524C65.4004 37.412 65.2044 37.3187 64.9991 37.244C64.8124 37.1507 64.6444 37.188 64.4951 37.356C64.3644 37.524 64.2618 37.804 64.1871 38.196H63.5711C63.6084 37.5987 63.6364 36.8707 63.6551 36.012C63.6738 35.1533 63.6831 34.0147 63.6831 32.596H64.2991C64.4298 33.6227 64.6258 34.528 64.8871 35.312C65.1671 36.0773 65.5684 36.684 66.0911 37.132C66.6138 37.5613 67.2858 37.776 68.1071 37.776C68.4618 37.776 68.7978 37.7013 69.1151 37.552C69.4511 37.4027 69.7218 37.1693 69.9271 36.852C70.1511 36.5347 70.2631 36.1053 70.2631 35.564C70.2631 34.7427 69.9831 34.0613 69.4231 33.52C68.8631 32.9787 68.1631 32.4 67.3231 31.784C66.6884 31.3173 66.0911 30.86 65.5311 30.412C64.9898 29.964 64.5418 29.46 64.1871 28.9C63.8511 28.34 63.6831 27.6773 63.6831 26.912C63.6831 26.072 63.8978 25.3813 64.3271 24.84C64.7564 24.28 65.3164 23.86 66.0071 23.58C66.7164 23.2813 67.4724 23.132 68.2751 23.132Z" fill="#F3F2ED"/>
<path d="M82.5 23.076C84.1427 23.076 85.4306 23.5613 86.364 24.532C87.316 25.484 87.792 27.0893 87.792 29.348H79.028L78.972 28.816H83.704C83.7227 27.9013 83.6853 27.0613 83.592 26.296C83.4986 25.512 83.3493 24.8867 83.144 24.42C82.9387 23.9533 82.6587 23.72 82.304 23.72C81.8 23.72 81.3893 24.1213 81.072 24.924C80.7546 25.708 80.5493 27.0613 80.456 28.984L80.568 29.208C80.5493 29.3947 80.54 29.5813 80.54 29.768C80.54 29.9547 80.54 30.1507 80.54 30.356C80.54 31.6627 80.6986 32.68 81.016 33.408C81.352 34.136 81.7626 34.64 82.248 34.92C82.752 35.2 83.256 35.34 83.76 35.34C84.0213 35.34 84.3293 35.3027 84.684 35.228C85.0573 35.1533 85.4586 34.9853 85.888 34.724C86.3173 34.444 86.7373 34.024 87.148 33.464L87.624 33.632C87.4 34.3787 87.036 35.1253 86.532 35.872C86.0466 36.6 85.412 37.2067 84.628 37.692C83.844 38.1587 82.892 38.392 81.772 38.392C80.5773 38.392 79.4853 38.1493 78.496 37.664C77.5253 37.1787 76.7506 36.376 76.172 35.256C75.5933 34.136 75.304 32.6333 75.304 30.748C75.304 28.956 75.6213 27.5 76.256 26.38C76.8906 25.2413 77.7493 24.4107 78.832 23.888C79.9333 23.3467 81.156 23.076 82.5 23.076Z" fill="#F3F2ED"/>
<path d="M90.814 35.62C90.6647 36.1613 90.618 36.5907 90.674 36.908C90.73 37.2067 90.9353 37.356 91.29 37.356C91.6634 37.356 92.0087 37.1507 92.326 36.74C92.662 36.3107 93.0167 35.564 93.39 34.5L93.754 33.464H94.286L93.586 35.508C93.3433 36.2173 93.0447 36.7867 92.69 37.216C92.354 37.6267 91.9807 37.9253 91.57 38.112C91.1593 38.2987 90.7113 38.392 90.226 38.392C89.61 38.392 89.1527 38.2707 88.854 38.028C88.574 37.804 88.3967 37.496 88.322 37.104C88.266 36.712 88.2753 36.292 88.35 35.844C88.4433 35.3773 88.5553 34.92 88.686 34.472L93.25 19.324C93.4367 18.6893 93.418 18.2227 93.194 17.924C92.97 17.6253 92.4007 17.476 91.486 17.476L91.682 16.888C92.7087 16.8693 93.614 16.7667 94.398 16.58C95.182 16.3747 95.938 16.0947 96.666 15.74L90.814 35.62Z" fill="#F3F2ED"/>
<path d="M98.0196 35.62C97.8703 36.1613 97.8236 36.5907 97.8796 36.908C97.9356 37.2067 98.141 37.356 98.4956 37.356C98.869 37.356 99.2143 37.1507 99.5316 36.74C99.8676 36.3107 100.222 35.564 100.596 34.5L100.96 33.464H101.492L100.792 35.508C100.549 36.2173 100.25 36.7867 99.8956 37.216C99.5596 37.6267 99.1863 37.9253 98.7756 38.112C98.365 38.2987 97.917 38.392 97.4316 38.392C96.8156 38.392 96.3583 38.2707 96.0596 38.028C95.7796 37.804 95.6023 37.496 95.5276 37.104C95.4716 36.712 95.481 36.292 95.5556 35.844C95.649 35.3773 95.761 34.92 95.8916 34.472L100.456 19.324C100.642 18.6893 100.624 18.2227 100.4 17.924C100.176 17.6253 99.6063 17.476 98.6916 17.476L98.8876 16.888C99.9143 16.8693 100.82 16.7667 101.604 16.58C102.388 16.3747 103.144 16.0947 103.872 15.74L98.0196 35.62Z" fill="#F3F2ED"/>
<path d="M23.1506 72L15.9865 51.957H20.3752L25.4475 66.791L30.3557 51.957H34.6486L27.4709 72H23.1506Z" fill="#F3F2ED"/>
<path d="M35.6062 55.5117V51.957H39.448V55.5117H35.6062ZM35.6062 72V57.4805H39.448V72H35.6062Z" fill="#F3F2ED"/>
<path d="M42.2513 72V51.957H44.2611V72H42.2513Z" fill="#F3F2ED"/>
<path d="M46.8046 72V51.957H48.8143V72H46.8046Z" fill="#F3F2ED"/>
<path d="M60.6547 70.1953C59.798 70.9336 58.9731 71.4759 58.1801 71.8223C57.3872 72.1595 56.5395 72.3281 55.6372 72.3281C54.2973 72.3281 53.2172 71.9362 52.3969 71.1524C51.5766 70.3594 51.1665 69.3477 51.1665 68.1172C51.1665 67.306 51.3487 66.5905 51.7133 65.9707C52.087 65.3418 52.5792 64.8405 53.1899 64.4668C53.8006 64.084 54.548 63.8106 55.4321 63.6465C55.9881 63.5371 57.0408 63.4505 58.5903 63.3867C60.1489 63.3229 61.2654 63.1589 61.9399 62.8945C62.1313 62.2201 62.227 61.6595 62.227 61.2129C62.227 60.6387 62.0174 60.1875 61.5981 59.8594C61.0239 59.4037 60.1853 59.1758 59.0825 59.1758C58.0434 59.1758 57.1912 59.4082 56.5258 59.8731C55.8696 60.3288 55.3911 60.9805 55.0903 61.8281L52.5883 61.6094C53.0987 60.1693 53.9054 59.0664 55.0082 58.3008C56.1202 57.5352 57.5193 57.1524 59.2055 57.1524C61.0011 57.1524 62.423 57.5807 63.4711 58.4375C64.2732 59.0755 64.6743 59.905 64.6743 60.9258C64.6743 61.7005 64.5603 62.5983 64.3325 63.6191L63.5258 67.2285C63.2706 68.377 63.143 69.3112 63.143 70.0313C63.143 70.487 63.2433 71.1432 63.4438 72H60.9418C60.8051 71.5261 60.7094 70.9245 60.6547 70.1953ZM61.5707 64.6445C61.2244 64.7813 60.8507 64.8861 60.4497 64.959C60.0577 65.0319 59.3969 65.1094 58.4672 65.1914C57.0271 65.319 56.0109 65.4831 55.4184 65.6836C54.826 65.875 54.3793 66.1849 54.0786 66.6133C53.7778 67.0417 53.6274 67.5156 53.6274 68.0352C53.6274 68.7279 53.8644 69.2975 54.3383 69.7441C54.8214 70.1908 55.505 70.4141 56.3891 70.4141C57.2094 70.4141 57.9978 70.1999 58.7543 69.7715C59.5109 69.334 60.1079 68.7279 60.5454 67.9531C60.9829 67.1784 61.3247 66.0755 61.5707 64.6445Z" fill="#F3F2ED"/>
<path d="M65.6592 67.9805L71.1826 67.4609C71.4105 68.1172 71.7295 68.5866 72.1397 68.8691C72.5498 69.1517 73.0967 69.293 73.7803 69.293C74.5277 69.293 75.1065 69.1335 75.5166 68.8145C75.8356 68.5775 75.9951 68.2813 75.9951 67.9258C75.9951 67.5247 75.7855 67.2149 75.3662 66.9961C75.0654 66.8412 74.2679 66.6497 72.9736 66.4219C71.0413 66.0846 69.6969 65.7747 68.9404 65.4922C68.193 65.2005 67.5596 64.7129 67.04 64.0293C66.5296 63.3457 66.2744 62.5664 66.2744 61.6914C66.2744 60.7344 66.5524 59.9095 67.1084 59.2168C67.6644 58.5241 68.43 58.0091 69.4053 57.6719C70.3805 57.3255 71.6885 57.1524 73.3291 57.1524C75.0609 57.1524 76.3369 57.2845 77.1572 57.5488C77.9867 57.8132 78.6748 58.2233 79.2217 58.7793C79.7777 59.3353 80.238 60.0872 80.6025 61.0352L75.3252 61.5547C75.1885 61.0899 74.9606 60.7481 74.6416 60.5293C74.2041 60.2376 73.6755 60.0918 73.0557 60.0918C72.4268 60.0918 71.9665 60.2057 71.6748 60.4336C71.3923 60.6524 71.251 60.9212 71.251 61.2402C71.251 61.5957 71.4333 61.8646 71.7979 62.0469C72.1624 62.2292 72.9554 62.3932 74.1768 62.5391C76.027 62.7487 77.4033 63.0404 78.3057 63.4141C79.208 63.7878 79.8962 64.321 80.3701 65.0137C80.8532 65.7064 81.0947 66.4675 81.0947 67.2969C81.0947 68.1354 80.8395 68.9512 80.3291 69.7441C79.8278 70.5371 79.0303 71.1706 77.9365 71.6445C76.8519 72.1094 75.3708 72.3418 73.4932 72.3418C70.8408 72.3418 68.9496 71.9636 67.8193 71.207C66.6982 70.4505 65.9782 69.375 65.6592 67.9805Z" fill="#F3F2ED"/>
<path d="M90.0777 67.3789L93.2086 68.0215C92.7893 69.4798 92.1376 70.5645 91.2535 71.2754C90.3694 71.9772 89.2939 72.3281 88.0269 72.3281C86.2678 72.3281 84.9097 71.7402 83.9527 70.5645C82.8225 69.1973 82.2574 67.2832 82.2574 64.8223C82.2574 62.3978 82.8271 60.4564 83.9664 58.9981C84.9325 57.7676 86.1812 57.1524 87.7125 57.1524C89.4169 57.1524 90.7522 57.7813 91.7183 59.0391C92.8303 60.4792 93.3863 62.6029 93.3863 65.4102L93.3726 65.8477H85.484C85.5022 66.9961 85.7574 67.8848 86.2496 68.5137C86.7509 69.1426 87.3524 69.457 88.0543 69.457C89.066 69.457 89.7405 68.7643 90.0777 67.3789ZM90.2554 63.4961C90.2281 62.3659 89.9866 61.5182 89.5308 60.9531C89.0751 60.3789 88.5328 60.0918 87.9039 60.0918C87.2385 60.0918 86.678 60.388 86.2222 60.9805C85.7574 61.582 85.5295 62.4206 85.5386 63.4961H90.2554Z" fill="#F3F2ED"/>
<path d="M94.6583 72L97.6935 57.4805H99.9357L99.4025 60.0098C100.378 59.0163 101.289 58.2917 102.137 57.8359C102.985 57.3802 103.85 57.1524 104.735 57.1524C105.91 57.1524 106.831 57.4714 107.496 58.1094C108.171 58.7474 108.508 59.5996 108.508 60.666C108.508 61.2038 108.389 62.0514 108.152 63.209L106.307 72H103.832L105.76 62.7988C105.951 61.9056 106.047 61.2448 106.047 60.8164C106.047 60.3333 105.878 59.9414 105.541 59.6406C105.213 59.3399 104.735 59.1895 104.106 59.1895C102.839 59.1895 101.708 59.6452 100.715 60.5566C99.7306 61.4681 99.006 63.0313 98.5411 65.2461L97.1329 72H94.6583ZM99.3888 55.293C99.6896 54.0807 100.059 53.2695 100.496 52.8594C100.943 52.4401 101.499 52.2305 102.164 52.2305C102.465 52.2305 102.757 52.2669 103.039 52.3399C103.331 52.4128 103.832 52.6087 104.543 52.9277C105.254 53.2376 105.742 53.3926 106.006 53.3926C106.216 53.3926 106.402 53.3197 106.567 53.1738C106.731 53.0189 106.867 52.7318 106.977 52.3125H108.631C108.54 53.2513 108.235 53.985 107.715 54.5137C107.205 55.0423 106.612 55.3066 105.938 55.3066C105.573 55.3066 105.113 55.1882 104.557 54.9512C103.299 54.4043 102.524 54.1309 102.233 54.1309C101.941 54.1309 101.699 54.2266 101.508 54.418C101.317 54.6003 101.18 54.8919 101.098 55.293H99.3888Z" fill="#F3F2ED"/>
<path d="M109.684 64.7402C109.684 62.0514 110.432 60.0599 111.926 58.7656C113.175 57.6901 114.697 57.1524 116.493 57.1524C118.489 57.1524 120.12 57.8086 121.387 59.1211C122.654 60.4245 123.288 62.2292 123.288 64.5352C123.288 66.4037 123.005 67.8757 122.44 68.9512C121.884 70.0176 121.068 70.847 119.993 71.4395C118.926 72.0319 117.76 72.3281 116.493 72.3281C114.46 72.3281 112.815 71.6764 111.557 70.3731C110.309 69.0697 109.684 67.1921 109.684 64.7402ZM112.214 64.7402C112.214 66.5996 112.619 67.9941 113.43 68.9238C114.242 69.8444 115.262 70.3047 116.493 70.3047C117.714 70.3047 118.73 69.8399 119.542 68.9102C120.353 67.9805 120.758 66.5632 120.758 64.6582C120.758 62.8626 120.348 61.5046 119.528 60.584C118.717 59.6543 117.705 59.1895 116.493 59.1895C115.262 59.1895 114.242 59.6497 113.43 60.5703C112.619 61.4909 112.214 62.8809 112.214 64.7402Z" fill="#F3F2ED"/>
<path d="M125.599 72V57.4805H127.814V59.6816C128.379 58.6517 128.898 57.9727 129.372 57.6445C129.855 57.3164 130.384 57.1524 130.958 57.1524C131.788 57.1524 132.631 57.4167 133.488 57.9453L132.64 60.2285C132.038 59.8731 131.437 59.6953 130.835 59.6953C130.297 59.6953 129.814 59.8594 129.386 60.1875C128.958 60.5065 128.652 60.9531 128.47 61.5274C128.197 62.4024 128.06 63.3594 128.06 64.3984V72H125.599Z" fill="#F3F2ED"/>
</svg>
