<svg width="673" height="210" viewBox="0 0 673 210" fill="none" xmlns="http://www.w3.org/2000/svg">
<circle cx="105" cy="105" r="104.553" stroke="#282828" stroke-width="0.893617"/>
<path d="M37.4391 84.9849L44.4031 84.2636C44.602 85.8388 45.1907 87.0907 46.1689 88.0192C47.1472 88.9311 48.2747 89.3871 49.5514 89.3871C51.0105 89.3871 52.2458 88.7985 53.2572 87.6212C54.2686 86.4274 54.7744 84.6367 54.7744 82.2491C54.7744 80.0107 54.2686 78.336 53.2572 77.2251C52.2624 76.0976 50.9608 75.5338 49.3524 75.5338C47.3462 75.5338 45.5471 76.4209 43.9554 78.1951L38.2848 77.3743L41.8662 58.3976H60.3455V64.9387H47.1638L46.0694 71.1316C47.628 70.3524 49.2198 69.9627 50.8447 69.9627C53.9453 69.9627 56.5734 71.0902 58.7289 73.3452C60.8844 75.6002 61.9621 78.5267 61.9621 82.1247C61.9621 85.1258 61.0916 87.8036 59.3507 90.1581C56.9796 93.3748 53.6883 94.9831 49.4768 94.9831C46.1109 94.9831 43.3668 94.0795 41.2444 92.2721C39.1221 90.4648 37.8537 88.0358 37.4391 84.9849ZM64.7736 84.9849L71.7375 84.2636C71.9365 85.8388 72.5251 87.0907 73.5033 88.0192C74.4816 88.9311 75.6091 89.3871 76.8858 89.3871C78.3449 89.3871 79.5802 88.7985 80.5916 87.6212C81.6031 86.4274 82.1088 84.6367 82.1088 82.2491C82.1088 80.0107 81.6031 78.336 80.5916 77.2251C79.5968 76.0976 78.2952 75.5338 76.6869 75.5338C74.6806 75.5338 72.8816 76.4209 71.2898 78.1951L65.6192 77.3743L69.2006 58.3976H87.6799V64.9387H74.4982L73.4039 71.1316C74.9625 70.3524 76.5542 69.9627 78.1791 69.9627C81.2797 69.9627 83.9078 71.0902 86.0633 73.3452C88.2188 75.6002 89.2965 78.5267 89.2965 82.1247C89.2965 85.1258 88.4261 87.8036 86.6851 90.1581C84.314 93.3748 81.0227 94.9831 76.8112 94.9831C73.4453 94.9831 70.7012 94.0795 68.5789 92.2721C66.4565 90.4648 65.1881 88.0358 64.7736 84.9849ZM93.5008 94.3613V87.3725H100.49V94.3613H93.5008ZM128.844 66.8289L122.079 67.5751C121.913 66.1823 121.482 65.1543 120.785 64.491C120.089 63.8278 119.185 63.4962 118.074 63.4962C116.599 63.4962 115.347 64.1594 114.319 65.4859C113.308 66.8124 112.669 69.5731 112.404 73.768C114.145 71.712 116.309 70.684 118.895 70.684C121.813 70.684 124.309 71.7949 126.381 74.0167C128.471 76.2385 129.515 79.107 129.515 82.6221C129.515 86.3528 128.421 89.3456 126.232 91.6006C124.044 93.8556 121.233 94.9831 117.801 94.9831C114.12 94.9831 111.094 93.5572 108.723 90.7053C106.352 87.8368 105.166 83.1444 105.166 76.6282C105.166 69.9461 106.402 65.1294 108.872 62.178C111.343 59.2266 114.551 57.751 118.497 57.751C121.266 57.751 123.554 58.5303 125.362 60.0888C127.186 61.6309 128.346 63.8776 128.844 66.8289ZM113.001 82.075C113.001 84.3465 113.523 86.1041 114.568 87.3477C115.612 88.5746 116.806 89.1881 118.149 89.1881C119.442 89.1881 120.52 88.6824 121.382 87.671C122.245 86.6596 122.676 85.0015 122.676 82.6967C122.676 80.3257 122.211 78.593 121.283 77.4987C120.354 76.3878 119.194 75.8323 117.801 75.8323C116.458 75.8323 115.322 76.3629 114.394 77.4241C113.465 78.4686 113.001 80.0189 113.001 82.075ZM132.551 66.9035C132.551 63.6371 133.263 61.2163 134.689 59.6412C136.132 58.066 138.08 57.2784 140.534 57.2784C143.071 57.2784 145.052 58.066 146.478 59.6412C147.921 61.1998 148.642 63.6206 148.642 66.9035C148.642 70.17 147.921 72.5908 146.478 74.1659C145.052 75.7411 143.112 76.5287 140.659 76.5287C138.122 76.5287 136.132 75.7494 134.689 74.1908C133.263 72.6156 132.551 70.1865 132.551 66.9035ZM137.997 66.8538C137.997 69.2249 138.271 70.8166 138.818 71.6291C139.233 72.226 139.805 72.5244 140.534 72.5244C141.28 72.5244 141.861 72.226 142.275 71.6291C142.806 70.8166 143.071 69.2249 143.071 66.8538C143.071 64.4828 142.806 62.8993 142.275 62.1034C141.861 61.4899 141.28 61.1832 140.534 61.1832C139.805 61.1832 139.233 61.4816 138.818 62.0785C138.271 62.891 137.997 64.4828 137.997 66.8538ZM145.857 95.7541H140.683L160.108 57.2784H165.132L145.857 95.7541ZM157.148 86.1787C157.148 82.9123 157.861 80.4915 159.287 78.9163C160.73 77.3412 162.694 76.5536 165.181 76.5536C167.685 76.5536 169.65 77.3412 171.076 78.9163C172.518 80.4915 173.24 82.9123 173.24 86.1787C173.24 89.4617 172.518 91.8908 171.076 93.466C169.65 95.0411 167.71 95.8287 165.256 95.8287C162.719 95.8287 160.73 95.0411 159.287 93.466C157.861 91.8908 157.148 89.4617 157.148 86.1787ZM162.595 86.1538C162.595 88.5249 162.868 90.1084 163.416 90.9042C163.83 91.5177 164.402 91.8245 165.132 91.8245C165.878 91.8245 166.45 91.526 166.848 90.9291C167.395 90.1166 167.669 88.5249 167.669 86.1538C167.669 83.7828 167.403 82.191 166.873 81.3786C166.458 80.7817 165.878 80.4832 165.132 80.4832C164.386 80.4832 163.814 80.7817 163.416 81.3786C162.868 82.191 162.595 83.7828 162.595 86.1538ZM27.857 137.361V123.289H30.6601L33.9911 133.253C34.2982 134.181 34.5222 134.875 34.663 135.336C34.823 134.824 35.0726 134.072 35.4118 133.08L38.7812 123.289H41.2866V137.361H39.4915V125.583L35.4022 137.361H33.7223L29.6521 125.381V137.361H27.857ZM43.6868 125.276V123.289H45.4147V125.276H43.6868ZM43.6868 137.361V127.167H45.4147V137.361H43.6868ZM46.9702 134.318L48.6789 134.05C48.7749 134.734 49.0405 135.259 49.4757 135.624C49.9172 135.989 50.5316 136.171 51.3187 136.171C52.1123 136.171 52.7011 136.011 53.085 135.691C53.469 135.365 53.661 134.984 53.661 134.549C53.661 134.158 53.4914 133.851 53.1522 133.627C52.9154 133.474 52.3267 133.278 51.3859 133.042C50.1188 132.722 49.2389 132.446 48.7461 132.216C48.2597 131.979 47.8886 131.656 47.6326 131.247C47.383 130.831 47.2582 130.373 47.2582 129.874C47.2582 129.419 47.3606 129 47.5654 128.616C47.7766 128.226 48.0614 127.903 48.4197 127.647C48.6885 127.448 49.0533 127.282 49.5141 127.148C49.9812 127.007 50.4804 126.936 51.0116 126.936C51.8115 126.936 52.5123 127.052 53.1138 127.282C53.7218 127.512 54.1698 127.826 54.4578 128.223C54.7457 128.613 54.9441 129.138 55.0529 129.797L53.3634 130.027C53.2866 129.503 53.0626 129.093 52.6915 128.799C52.3267 128.504 51.8083 128.357 51.1364 128.357C50.3428 128.357 49.7764 128.488 49.4373 128.751C49.0981 129.013 48.9285 129.32 48.9285 129.672C48.9285 129.896 48.9989 130.098 49.1397 130.277C49.2805 130.463 49.5013 130.616 49.802 130.738C49.9748 130.802 50.4836 130.949 51.3283 131.179C52.5507 131.506 53.4018 131.774 53.8818 131.986C54.3682 132.19 54.7489 132.491 55.0241 132.888C55.2993 133.285 55.4369 133.778 55.4369 134.366C55.4369 134.942 55.2673 135.486 54.9281 135.998C54.5953 136.504 54.1122 136.897 53.4786 137.179C52.8451 137.454 52.1283 137.592 51.3283 137.592C50.0036 137.592 48.9925 137.317 48.2949 136.766C47.6038 136.216 47.1622 135.4 46.9702 134.318ZM57.098 137.361V123.289H58.8259V128.338C59.6322 127.404 60.6498 126.936 61.8785 126.936C62.6336 126.936 63.2896 127.087 63.8464 127.388C64.4031 127.682 64.7999 128.092 65.0367 128.616C65.2799 129.141 65.4015 129.903 65.4015 130.901V137.361H63.6736V130.901C63.6736 130.037 63.4848 129.41 63.1072 129.019C62.736 128.623 62.2081 128.424 61.5233 128.424C61.0113 128.424 60.5282 128.559 60.0738 128.827C59.6258 129.09 59.3058 129.448 59.1138 129.903C58.9219 130.357 58.8259 130.984 58.8259 131.784V137.361H57.098ZM74.6269 134.078L76.4124 134.299C76.1308 135.342 75.6092 136.152 74.8477 136.728C74.0861 137.304 73.1134 137.592 71.9294 137.592C70.4383 137.592 69.2544 137.134 68.3777 136.219C67.5073 135.297 67.0721 134.008 67.0721 132.35C67.0721 130.635 67.5137 129.304 68.3969 128.357C69.28 127.41 70.4255 126.936 71.8334 126.936C73.1966 126.936 74.3101 127.4 75.174 128.328C76.038 129.256 76.4699 130.562 76.4699 132.245C76.4699 132.347 76.4667 132.501 76.4604 132.706H68.8576C68.9216 133.826 69.2384 134.683 69.808 135.278C70.3775 135.873 71.0879 136.171 71.939 136.171C72.5726 136.171 73.1134 136.005 73.5613 135.672C74.0093 135.339 74.3645 134.808 74.6269 134.078ZM68.9536 131.285H74.6461C74.5693 130.427 74.3517 129.784 73.9933 129.355C73.4429 128.69 72.7294 128.357 71.8526 128.357C71.0591 128.357 70.3903 128.623 69.8464 129.154C69.3088 129.685 69.0112 130.395 68.9536 131.285ZM84.8506 136.104C84.2107 136.648 83.5931 137.032 82.9979 137.256C82.4092 137.48 81.7756 137.592 81.0972 137.592C79.9773 137.592 79.1166 137.32 78.515 136.776C77.9134 136.225 77.6127 135.525 77.6127 134.673C77.6127 134.174 77.7247 133.72 77.9486 133.31C78.179 132.894 78.4766 132.562 78.8414 132.312C79.2126 132.062 79.6285 131.874 80.0893 131.746C80.4285 131.656 80.9405 131.57 81.6252 131.486C83.0203 131.32 84.0475 131.122 84.7066 130.891C84.713 130.655 84.7162 130.504 84.7162 130.44C84.7162 129.736 84.553 129.24 84.2266 128.952C83.7851 128.562 83.1291 128.367 82.2588 128.367C81.446 128.367 80.8445 128.511 80.4541 128.799C80.0701 129.08 79.7853 129.583 79.5997 130.306L77.9102 130.075C78.0638 129.352 78.3166 128.77 78.6686 128.328C79.0206 127.88 79.5293 127.538 80.1949 127.301C80.8605 127.058 81.6316 126.936 82.5084 126.936C83.3787 126.936 84.0859 127.039 84.6298 127.244C85.1738 127.448 85.5738 127.708 85.8297 128.021C86.0857 128.328 86.2649 128.719 86.3673 129.192C86.4249 129.487 86.4537 130.018 86.4537 130.786V133.09C86.4537 134.696 86.4889 135.713 86.5593 136.142C86.6361 136.565 86.7833 136.971 87.0009 137.361H85.1962C85.017 137.003 84.9018 136.584 84.8506 136.104ZM84.7066 132.245C84.0795 132.501 83.1387 132.718 81.8844 132.898C81.174 133 80.6717 133.115 80.3773 133.243C80.0829 133.371 79.8557 133.56 79.6957 133.81C79.5357 134.053 79.4557 134.325 79.4557 134.625C79.4557 135.086 79.6285 135.47 79.9741 135.777C80.3261 136.085 80.8381 136.238 81.51 136.238C82.1756 136.238 82.7675 136.094 83.2859 135.806C83.8043 135.512 84.1851 135.112 84.4282 134.606C84.6138 134.216 84.7066 133.64 84.7066 132.878V132.245ZM88.7292 137.361V127.167H90.2843V128.712C90.681 127.989 91.0458 127.512 91.3786 127.282C91.7178 127.052 92.0889 126.936 92.4921 126.936C93.0745 126.936 93.6664 127.122 94.268 127.493L93.6728 129.096C93.2505 128.847 92.8281 128.722 92.4057 128.722C92.0281 128.722 91.689 128.837 91.3882 129.067C91.0874 129.291 90.873 129.605 90.745 130.008C90.553 130.623 90.457 131.295 90.457 132.024V137.361H88.7292ZM99.99 125.276V123.289H101.718V125.276H99.99ZM99.99 137.361V127.167H101.718V137.361H99.99ZM103.965 137.361V127.167H105.52V128.616C106.268 127.496 107.35 126.936 108.764 126.936C109.379 126.936 109.942 127.048 110.454 127.272C110.972 127.49 111.359 127.778 111.615 128.136C111.871 128.495 112.05 128.92 112.153 129.413C112.217 129.733 112.249 130.293 112.249 131.093V137.361H110.521V131.16C110.521 130.456 110.454 129.931 110.319 129.586C110.185 129.234 109.945 128.955 109.599 128.751C109.26 128.539 108.86 128.434 108.399 128.434C107.664 128.434 107.027 128.667 106.489 129.135C105.958 129.602 105.692 130.488 105.692 131.794V137.361H103.965ZM119.555 137.361V123.289H121.283V137.361H119.555ZM130.556 134.078L132.342 134.299C132.06 135.342 131.538 136.152 130.777 136.728C130.015 137.304 129.043 137.592 127.859 137.592C126.368 137.592 125.184 137.134 124.307 136.219C123.436 135.297 123.001 134.008 123.001 132.35C123.001 130.635 123.443 129.304 124.326 128.357C125.209 127.41 126.355 126.936 127.763 126.936C129.126 126.936 130.239 127.4 131.103 128.328C131.967 129.256 132.399 130.562 132.399 132.245C132.399 132.347 132.396 132.501 132.39 132.706H124.787C124.851 133.826 125.168 134.683 125.737 135.278C126.307 135.873 127.017 136.171 127.868 136.171C128.502 136.171 129.043 136.005 129.491 135.672C129.938 135.339 130.294 134.808 130.556 134.078ZM124.883 131.285H130.575C130.498 130.427 130.281 129.784 129.922 129.355C129.372 128.69 128.659 128.357 127.782 128.357C126.988 128.357 126.32 128.623 125.776 129.154C125.238 129.685 124.94 130.395 124.883 131.285ZM140.78 133.627L142.479 133.848C142.293 135.019 141.817 135.937 141.049 136.603C140.287 137.262 139.349 137.592 138.236 137.592C136.841 137.592 135.718 137.137 134.867 136.229C134.022 135.313 133.599 134.005 133.599 132.302C133.599 131.202 133.782 130.239 134.147 129.413C134.511 128.587 135.065 127.97 135.807 127.56C136.556 127.144 137.369 126.936 138.246 126.936C139.353 126.936 140.258 127.218 140.962 127.781C141.666 128.338 142.117 129.131 142.316 130.162L140.636 130.421C140.476 129.736 140.191 129.221 139.781 128.875C139.378 128.53 138.889 128.357 138.313 128.357C137.442 128.357 136.735 128.671 136.191 129.298C135.647 129.919 135.375 130.904 135.375 132.254C135.375 133.624 135.638 134.619 136.162 135.24C136.687 135.861 137.372 136.171 138.217 136.171C138.895 136.171 139.461 135.963 139.916 135.547C140.37 135.131 140.658 134.491 140.78 133.627ZM147.337 135.816L147.586 137.342C147.1 137.445 146.665 137.496 146.281 137.496C145.653 137.496 145.167 137.397 144.822 137.198C144.476 137 144.233 136.741 144.092 136.421C143.951 136.094 143.881 135.413 143.881 134.376V128.511H142.614V127.167H143.881V124.642L145.599 123.605V127.167H147.337V128.511H145.599V134.472C145.599 134.965 145.628 135.281 145.685 135.422C145.749 135.563 145.849 135.675 145.983 135.758C146.124 135.841 146.322 135.883 146.578 135.883C146.77 135.883 147.023 135.861 147.337 135.816ZM155.324 137.361V135.864C154.53 137.016 153.452 137.592 152.089 137.592C151.487 137.592 150.924 137.477 150.399 137.246C149.881 137.016 149.494 136.728 149.238 136.382C148.988 136.03 148.812 135.601 148.71 135.096C148.639 134.757 148.604 134.219 148.604 133.483V127.167H150.332V132.821C150.332 133.723 150.367 134.331 150.438 134.645C150.546 135.099 150.777 135.457 151.129 135.72C151.481 135.976 151.916 136.104 152.434 136.104C152.953 136.104 153.439 135.973 153.893 135.71C154.348 135.441 154.668 135.08 154.853 134.625C155.045 134.165 155.141 133.499 155.141 132.629V127.167H156.869V137.361H155.324ZM159.173 137.361V127.167H160.729V128.712C161.125 127.989 161.49 127.512 161.823 127.282C162.162 127.052 162.533 126.936 162.936 126.936C163.519 126.936 164.111 127.122 164.712 127.493L164.117 129.096C163.695 128.847 163.272 128.722 162.85 128.722C162.472 128.722 162.133 128.837 161.832 129.067C161.532 129.291 161.317 129.605 161.189 130.008C160.997 130.623 160.901 131.295 160.901 132.024V137.361H159.173ZM172.325 134.078L174.11 134.299C173.829 135.342 173.307 136.152 172.546 136.728C171.784 137.304 170.811 137.592 169.628 137.592C168.136 137.592 166.952 137.134 166.076 136.219C165.205 135.297 164.77 134.008 164.77 132.35C164.77 130.635 165.212 129.304 166.095 128.357C166.978 127.41 168.124 126.936 169.532 126.936C170.895 126.936 172.008 127.4 172.872 128.328C173.736 129.256 174.168 130.562 174.168 132.245C174.168 132.347 174.165 132.501 174.158 132.706H166.556C166.62 133.826 166.936 134.683 167.506 135.278C168.076 135.873 168.786 136.171 169.637 136.171C170.271 136.171 170.811 136.005 171.259 135.672C171.707 135.339 172.063 134.808 172.325 134.078ZM166.652 131.285H172.344C172.267 130.427 172.05 129.784 171.691 129.355C171.141 128.69 170.427 128.357 169.551 128.357C168.757 128.357 168.088 128.623 167.544 129.154C167.007 129.685 166.709 130.395 166.652 131.285ZM175.205 134.318L176.914 134.05C177.01 134.734 177.275 135.259 177.711 135.624C178.152 135.989 178.767 136.171 179.554 136.171C180.347 136.171 180.936 136.011 181.32 135.691C181.704 135.365 181.896 134.984 181.896 134.549C181.896 134.158 181.726 133.851 181.387 133.627C181.15 133.474 180.562 133.278 179.621 133.042C178.354 132.722 177.474 132.446 176.981 132.216C176.495 131.979 176.124 131.656 175.868 131.247C175.618 130.831 175.493 130.373 175.493 129.874C175.493 129.419 175.596 129 175.8 128.616C176.012 128.226 176.296 127.903 176.655 127.647C176.923 127.448 177.288 127.282 177.749 127.148C178.216 127.007 178.715 126.936 179.247 126.936C180.046 126.936 180.747 127.052 181.349 127.282C181.957 127.512 182.405 127.826 182.693 128.223C182.981 128.613 183.179 129.138 183.288 129.797L181.598 130.027C181.522 129.503 181.298 129.093 180.926 128.799C180.562 128.504 180.043 128.357 179.371 128.357C178.578 128.357 178.011 128.488 177.672 128.751C177.333 129.013 177.163 129.32 177.163 129.672C177.163 129.896 177.234 130.098 177.375 130.277C177.515 130.463 177.736 130.616 178.037 130.738C178.21 130.802 178.719 130.949 179.563 131.179C180.786 131.506 181.637 131.774 182.117 131.986C182.603 132.19 182.984 132.491 183.259 132.888C183.534 133.285 183.672 133.778 183.672 134.366C183.672 134.942 183.502 135.486 183.163 135.998C182.83 136.504 182.347 136.897 181.714 137.179C181.08 137.454 180.363 137.592 179.563 137.592C178.239 137.592 177.227 137.317 176.53 136.766C175.839 136.216 175.397 135.4 175.205 134.318ZM27.9484 155.264C27.9484 153.376 28.4732 151.978 29.5227 151.069C30.3995 150.314 31.4682 149.936 32.7289 149.936C34.1304 149.936 35.276 150.397 36.1655 151.319C37.0551 152.234 37.4998 153.501 37.4998 155.12C37.4998 156.432 37.3014 157.466 36.9047 158.221C36.5143 158.969 35.9415 159.552 35.1864 159.968C34.4376 160.384 33.6185 160.592 32.7289 160.592C31.3018 160.592 30.1467 160.134 29.2635 159.219C28.3868 158.304 27.9484 156.986 27.9484 155.264ZM29.7243 155.264C29.7243 156.57 30.0091 157.549 30.5787 158.201C31.1482 158.848 31.865 159.171 32.7289 159.171C33.5865 159.171 34.3 158.845 34.8696 158.192C35.4392 157.539 35.7239 156.544 35.7239 155.206C35.7239 153.946 35.436 152.992 34.86 152.346C34.2904 151.693 33.5801 151.367 32.7289 151.367C31.865 151.367 31.1482 151.69 30.5787 152.336C30.0091 152.983 29.7243 153.959 29.7243 155.264ZM39.1225 160.361V150.167H40.6776V151.712C41.0744 150.989 41.4392 150.512 41.772 150.282C42.1111 150.052 42.4823 149.936 42.8855 149.936C43.4678 149.936 44.0598 150.122 44.6614 150.493L44.0662 152.096C43.6438 151.847 43.2215 151.722 42.7991 151.722C42.4215 151.722 42.0823 151.837 41.7816 152.067C41.4808 152.291 41.2664 152.605 41.1384 153.008C40.9464 153.623 40.8504 154.295 40.8504 155.024V160.361H39.1225ZM50.7866 160.361V151.511H49.2603V150.167H50.7866V149.082C50.7866 148.397 50.8474 147.889 50.9689 147.556C51.1353 147.108 51.4265 146.746 51.8425 146.471C52.2649 146.189 52.8536 146.049 53.6088 146.049C54.0952 146.049 54.6327 146.106 55.2215 146.221L54.9623 147.729C54.6039 147.665 54.2647 147.633 53.9448 147.633C53.42 147.633 53.0488 147.745 52.8312 147.969C52.6136 148.192 52.5049 148.612 52.5049 149.226V150.167H54.4919V151.511H52.5049V160.361H50.7866ZM54.8091 155.264C54.8091 153.376 55.3339 151.978 56.3834 151.069C57.2601 150.314 58.3289 149.936 59.5896 149.936C60.9911 149.936 62.1366 150.397 63.0262 151.319C63.9157 152.234 64.3605 153.501 64.3605 155.12C64.3605 156.432 64.1621 157.466 63.7653 158.221C63.375 158.969 62.8022 159.552 62.047 159.968C61.2983 160.384 60.4791 160.592 59.5896 160.592C58.1625 160.592 57.0074 160.134 56.1242 159.219C55.2475 158.304 54.8091 156.986 54.8091 155.264ZM56.585 155.264C56.585 156.57 56.8698 157.549 57.4393 158.201C58.0089 158.848 58.7256 159.171 59.5896 159.171C60.4471 159.171 61.1607 158.845 61.7303 158.192C62.2998 157.539 62.5846 156.544 62.5846 155.206C62.5846 153.946 62.2966 152.992 61.7207 152.346C61.1511 151.693 60.4407 151.367 59.5896 151.367C58.7256 151.367 58.0089 151.69 57.4393 152.336C56.8698 152.983 56.585 153.959 56.585 155.264ZM65.9832 160.361V150.167H67.5383V151.712C67.9351 150.989 68.2998 150.512 68.6326 150.282C68.9718 150.052 69.343 149.936 69.7461 149.936C70.3285 149.936 70.9205 150.122 71.522 150.493L70.9269 152.096C70.5045 151.847 70.0821 151.722 69.6597 151.722C69.2822 151.722 68.943 151.837 68.6422 152.067C68.3414 152.291 68.127 152.605 67.999 153.008C67.8071 153.623 67.7111 154.295 67.7111 155.024V160.361H65.9832ZM72.156 160.361V150.167H73.7015V151.597C74.0215 151.098 74.447 150.698 74.9782 150.397C75.5094 150.09 76.1141 149.936 76.7925 149.936C77.5476 149.936 78.1652 150.093 78.6452 150.407C79.1315 150.72 79.4739 151.159 79.6723 151.722C80.4787 150.532 81.5282 149.936 82.8209 149.936C83.832 149.936 84.6096 150.218 85.1536 150.781C85.6975 151.338 85.9695 152.199 85.9695 153.363V160.361H84.2512V153.939C84.2512 153.248 84.1936 152.752 84.0784 152.451C83.9696 152.144 83.7681 151.898 83.4737 151.712C83.1793 151.527 82.8337 151.434 82.4369 151.434C81.7202 151.434 81.125 151.674 80.6514 152.154C80.1779 152.627 79.9411 153.389 79.9411 154.438V160.361H78.2132V153.738C78.2132 152.97 78.0724 152.394 77.7908 152.01C77.5092 151.626 77.0485 151.434 76.4085 151.434C75.9221 151.434 75.471 151.562 75.055 151.818C74.6454 152.074 74.3478 152.448 74.1623 152.941C73.9767 153.434 73.8839 154.144 73.8839 155.072V160.361H72.156ZM94.7917 159.104C94.1518 159.648 93.5342 160.032 92.9391 160.256C92.3503 160.48 91.7167 160.592 91.0384 160.592C89.9185 160.592 89.0577 160.32 88.4561 159.776C87.8546 159.225 87.5538 158.525 87.5538 157.673C87.5538 157.174 87.6658 156.72 87.8898 156.31C88.1202 155.894 88.4177 155.562 88.7825 155.312C89.1537 155.062 89.5697 154.874 90.0304 154.746C90.3696 154.656 90.8816 154.57 91.5664 154.486C92.9615 154.32 93.9886 154.122 94.6478 153.891C94.6542 153.655 94.6574 153.504 94.6574 153.44C94.6574 152.736 94.4942 152.24 94.1678 151.952C93.7262 151.562 93.0703 151.367 92.1999 151.367C91.3872 151.367 90.7856 151.511 90.3952 151.799C90.0112 152.08 89.7265 152.583 89.5409 153.306L87.8514 153.075C88.005 152.352 88.2578 151.77 88.6097 151.328C88.9617 150.88 89.4705 150.538 90.136 150.301C90.8016 150.058 91.5728 149.936 92.4495 149.936C93.3198 149.936 94.027 150.039 94.571 150.244C95.1149 150.448 95.5149 150.708 95.7709 151.021C96.0269 151.328 96.2061 151.719 96.3085 152.192C96.3661 152.487 96.3948 153.018 96.3948 153.786V156.09C96.3948 157.696 96.43 158.713 96.5004 159.142C96.5772 159.565 96.7244 159.971 96.942 160.361H95.1373C94.9581 160.003 94.8429 159.584 94.7917 159.104ZM94.6478 155.245C94.0206 155.501 93.0799 155.718 91.8255 155.898C91.1152 156 90.6128 156.115 90.3184 156.243C90.024 156.371 89.7969 156.56 89.6369 156.81C89.4769 157.053 89.3969 157.325 89.3969 157.625C89.3969 158.086 89.5697 158.47 89.9153 158.777C90.2672 159.085 90.7792 159.238 91.4512 159.238C92.1167 159.238 92.7087 159.094 93.227 158.806C93.7454 158.512 94.1262 158.112 94.3694 157.606C94.555 157.216 94.6478 156.64 94.6478 155.878V155.245ZM98.6511 160.361V146.289H100.379V160.361H98.6511ZM107.752 160.361V150.167H109.298V151.597C109.618 151.098 110.043 150.698 110.574 150.397C111.105 150.09 111.71 149.936 112.389 149.936C113.144 149.936 113.761 150.093 114.241 150.407C114.728 150.72 115.07 151.159 115.268 151.722C116.075 150.532 117.124 149.936 118.417 149.936C119.428 149.936 120.206 150.218 120.75 150.781C121.294 151.338 121.566 152.199 121.566 153.363V160.361H119.847V153.939C119.847 153.248 119.79 152.752 119.675 152.451C119.566 152.144 119.364 151.898 119.07 151.712C118.775 151.527 118.43 151.434 118.033 151.434C117.316 151.434 116.721 151.674 116.248 152.154C115.774 152.627 115.537 153.389 115.537 154.438V160.361H113.809V153.738C113.809 152.97 113.669 152.394 113.387 152.01C113.105 151.626 112.645 151.434 112.005 151.434C111.518 151.434 111.067 151.562 110.651 151.818C110.242 152.074 109.944 152.448 109.758 152.941C109.573 153.434 109.48 154.144 109.48 155.072V160.361H107.752ZM130.714 157.078L132.5 157.299C132.218 158.342 131.697 159.152 130.935 159.728C130.173 160.304 129.201 160.592 128.017 160.592C126.526 160.592 125.342 160.134 124.465 159.219C123.595 158.297 123.16 157.008 123.16 155.35C123.16 153.635 123.601 152.304 124.484 151.357C125.367 150.41 126.513 149.936 127.921 149.936C129.284 149.936 130.397 150.4 131.261 151.328C132.125 152.256 132.557 153.562 132.557 155.245C132.557 155.347 132.554 155.501 132.548 155.706H124.945C125.009 156.826 125.326 157.683 125.895 158.278C126.465 158.873 127.175 159.171 128.026 159.171C128.66 159.171 129.201 159.005 129.649 158.672C130.097 158.339 130.452 157.808 130.714 157.078ZM125.041 154.285H130.733C130.657 153.427 130.439 152.784 130.081 152.355C129.53 151.69 128.817 151.357 127.94 151.357C127.146 151.357 126.478 151.623 125.934 152.154C125.396 152.685 125.099 153.395 125.041 154.285ZM141.264 157.078L143.05 157.299C142.768 158.342 142.247 159.152 141.485 159.728C140.724 160.304 139.751 160.592 138.567 160.592C137.076 160.592 135.892 160.134 135.015 159.219C134.145 158.297 133.71 157.008 133.71 155.35C133.71 153.635 134.151 152.304 135.034 151.357C135.918 150.41 137.063 149.936 138.471 149.936C139.834 149.936 140.948 150.4 141.812 151.328C142.675 152.256 143.107 153.562 143.107 155.245C143.107 155.347 143.104 155.501 143.098 155.706H135.495C135.559 156.826 135.876 157.683 136.445 158.278C137.015 158.873 137.725 159.171 138.577 159.171C139.21 159.171 139.751 159.005 140.199 158.672C140.647 158.339 141.002 157.808 141.264 157.078ZM135.591 154.285H141.284C141.207 153.427 140.989 152.784 140.631 152.355C140.08 151.69 139.367 151.357 138.49 151.357C137.697 151.357 137.028 151.623 136.484 152.154C135.946 152.685 135.649 153.395 135.591 154.285ZM148.608 158.816L148.858 160.342C148.372 160.445 147.936 160.496 147.552 160.496C146.925 160.496 146.439 160.397 146.093 160.198C145.748 160 145.504 159.741 145.364 159.421C145.223 159.094 145.153 158.413 145.153 157.376V151.511H143.885V150.167H145.153V147.642L146.871 146.605V150.167H148.608V151.511H146.871V157.472C146.871 157.965 146.9 158.281 146.957 158.422C147.021 158.563 147.12 158.675 147.255 158.758C147.396 158.841 147.594 158.883 147.85 158.883C148.042 158.883 148.295 158.861 148.608 158.816ZM149.924 148.276V146.289H151.652V148.276H149.924ZM149.924 160.361V150.167H151.652V160.361H149.924ZM153.898 160.361V150.167H155.453V151.616C156.202 150.496 157.284 149.936 158.698 149.936C159.312 149.936 159.876 150.048 160.388 150.272C160.906 150.49 161.293 150.778 161.549 151.136C161.805 151.495 161.984 151.92 162.087 152.413C162.151 152.733 162.183 153.293 162.183 154.093V160.361H160.455V154.16C160.455 153.456 160.388 152.931 160.253 152.586C160.119 152.234 159.879 151.955 159.533 151.751C159.194 151.539 158.794 151.434 158.333 151.434C157.597 151.434 156.961 151.667 156.423 152.135C155.892 152.602 155.626 153.488 155.626 154.794V160.361H153.898ZM164.132 161.206L165.812 161.456C165.882 161.974 166.077 162.352 166.397 162.588C166.826 162.908 167.411 163.068 168.154 163.068C168.954 163.068 169.571 162.908 170.007 162.588C170.442 162.268 170.736 161.82 170.89 161.244C170.979 160.892 171.021 160.153 171.014 159.027C170.259 159.917 169.319 160.361 168.192 160.361C166.791 160.361 165.706 159.856 164.938 158.845C164.17 157.833 163.786 156.621 163.786 155.206C163.786 154.234 163.962 153.338 164.314 152.519C164.666 151.693 165.175 151.056 165.84 150.608C166.512 150.16 167.299 149.936 168.202 149.936C169.405 149.936 170.397 150.423 171.178 151.395V150.167H172.771V158.979C172.771 160.566 172.608 161.689 172.282 162.348C171.962 163.014 171.45 163.539 170.746 163.923C170.048 164.307 169.187 164.499 168.163 164.499C166.948 164.499 165.965 164.223 165.216 163.673C164.468 163.129 164.106 162.307 164.132 161.206ZM165.562 155.082C165.562 156.419 165.828 157.395 166.359 158.009C166.89 158.624 167.555 158.931 168.355 158.931C169.149 158.931 169.815 158.627 170.352 158.019C170.89 157.405 171.158 156.445 171.158 155.139C171.158 153.891 170.88 152.951 170.323 152.317C169.773 151.683 169.107 151.367 168.327 151.367C167.559 151.367 166.906 151.68 166.368 152.307C165.831 152.928 165.562 153.853 165.562 155.082ZM174.307 157.318L176.016 157.05C176.112 157.734 176.378 158.259 176.813 158.624C177.254 158.989 177.869 159.171 178.656 159.171C179.45 159.171 180.038 159.011 180.422 158.691C180.806 158.365 180.998 157.984 180.998 157.549C180.998 157.158 180.829 156.851 180.489 156.627C180.253 156.474 179.664 156.278 178.723 156.042C177.456 155.722 176.576 155.446 176.083 155.216C175.597 154.979 175.226 154.656 174.97 154.247C174.72 153.831 174.595 153.373 174.595 152.874C174.595 152.419 174.698 152 174.903 151.616C175.114 151.226 175.399 150.903 175.757 150.647C176.026 150.448 176.39 150.282 176.851 150.148C177.318 150.007 177.818 149.936 178.349 149.936C179.149 149.936 179.849 150.052 180.451 150.282C181.059 150.512 181.507 150.826 181.795 151.223C182.083 151.613 182.281 152.138 182.39 152.797L180.701 153.027C180.624 152.503 180.4 152.093 180.029 151.799C179.664 151.504 179.146 151.357 178.474 151.357C177.68 151.357 177.114 151.488 176.774 151.751C176.435 152.013 176.266 152.32 176.266 152.672C176.266 152.896 176.336 153.098 176.477 153.277C176.618 153.463 176.838 153.616 177.139 153.738C177.312 153.802 177.821 153.949 178.666 154.179C179.888 154.506 180.739 154.774 181.219 154.986C181.705 155.19 182.086 155.491 182.361 155.888C182.637 156.285 182.774 156.778 182.774 157.366C182.774 157.942 182.605 158.486 182.265 158.998C181.933 159.504 181.449 159.897 180.816 160.179C180.182 160.454 179.466 160.592 178.666 160.592C177.341 160.592 176.33 160.317 175.632 159.766C174.941 159.216 174.499 158.4 174.307 157.318Z" fill="#282828"/>
<circle cx="336.447" cy="105" r="104.553" stroke="#282828" stroke-width="0.893617"/>
<path d="M282.076 94.3613V87.0243H267.153V80.906L282.971 57.751H288.841V80.8811H293.368V87.0243H288.841V94.3613H282.076ZM282.076 80.8811V68.4207L273.694 80.8811H282.076ZM309.41 94.3613V87.0243H294.488V80.906L310.306 57.751H316.175V80.8811H320.702V87.0243H316.175V94.3613H309.41ZM309.41 80.8811V68.4207L301.029 80.8811H309.41ZM324.533 94.3613V87.3725H331.522V94.3613H324.533ZM349.903 94.3613V87.0243H334.98V80.906L350.798 57.751H356.668V80.8811H361.194V87.0243H356.668V94.3613H349.903ZM349.903 80.8811V68.4207L341.521 80.8811H349.903ZM363.583 66.9035C363.583 63.6371 364.296 61.2163 365.722 59.6412C367.164 58.066 369.113 57.2784 371.567 57.2784C374.103 57.2784 376.085 58.066 377.511 59.6412C378.953 61.1998 379.675 63.6206 379.675 66.9035C379.675 70.17 378.953 72.5908 377.511 74.1659C376.085 75.7411 374.145 76.5287 371.691 76.5287C369.154 76.5287 367.164 75.7494 365.722 74.1908C364.296 72.6156 363.583 70.1865 363.583 66.9035ZM369.03 66.8538C369.03 69.2249 369.303 70.8166 369.85 71.6291C370.265 72.226 370.837 72.5244 371.567 72.5244C372.313 72.5244 372.893 72.226 373.308 71.6291C373.838 70.8166 374.103 69.2249 374.103 66.8538C374.103 64.4828 373.838 62.8993 373.308 62.1034C372.893 61.4899 372.313 61.1832 371.567 61.1832C370.837 61.1832 370.265 61.4816 369.85 62.0785C369.303 62.891 369.03 64.4828 369.03 66.8538ZM376.889 95.7541H371.716L391.14 57.2784H396.164L376.889 95.7541ZM388.18 86.1787C388.18 82.9123 388.893 80.4915 390.319 78.9163C391.762 77.3412 393.727 76.5536 396.214 76.5536C398.718 76.5536 400.682 77.3412 402.108 78.9163C403.551 80.4915 404.272 82.9123 404.272 86.1787C404.272 89.4617 403.551 91.8908 402.108 93.466C400.682 95.0411 398.742 95.8287 396.288 95.8287C393.752 95.8287 391.762 95.0411 390.319 93.466C388.893 91.8908 388.18 89.4617 388.18 86.1787ZM393.627 86.1538C393.627 88.5249 393.901 90.1084 394.448 90.9042C394.863 91.5177 395.435 91.8245 396.164 91.8245C396.91 91.8245 397.482 91.526 397.88 90.9291C398.427 90.1166 398.701 88.5249 398.701 86.1538C398.701 83.7828 398.436 82.191 397.905 81.3786C397.491 80.7817 396.91 80.4832 396.164 80.4832C395.418 80.4832 394.846 80.7817 394.448 81.3786C393.901 82.191 393.627 83.7828 393.627 86.1538ZM269.428 134.361L274.096 122.208H275.828L280.803 134.361H278.97L277.553 130.68H272.471L271.136 134.361H269.428ZM272.935 129.371H277.055L275.787 126.005C275.4 124.982 275.113 124.142 274.925 123.484C274.77 124.264 274.552 125.037 274.27 125.806L272.935 129.371ZM281.524 134.361V122.208H283.017V134.361H281.524ZM286.623 134.361L283.929 125.557H285.471L286.872 130.639L287.394 132.529C287.416 132.435 287.568 131.83 287.85 130.714L289.251 125.557H290.785L292.103 130.664L292.543 132.347L293.048 130.647L294.557 125.557H296.008L293.255 134.361H291.705L290.304 129.089L289.964 127.588L288.182 134.361H286.623ZM302.674 133.275C302.121 133.745 301.588 134.077 301.074 134.27C300.565 134.464 300.018 134.56 299.432 134.56C298.465 134.56 297.722 134.325 297.202 133.856C296.683 133.38 296.423 132.775 296.423 132.04C296.423 131.609 296.519 131.217 296.713 130.863C296.912 130.504 297.169 130.216 297.484 130.001C297.804 129.785 298.164 129.622 298.562 129.511C298.855 129.434 299.297 129.359 299.888 129.288C301.093 129.144 301.98 128.973 302.549 128.774C302.555 128.569 302.558 128.439 302.558 128.384C302.558 127.776 302.417 127.348 302.135 127.099C301.753 126.762 301.187 126.593 300.435 126.593C299.733 126.593 299.214 126.718 298.877 126.966C298.545 127.209 298.299 127.643 298.139 128.268L296.68 128.069C296.812 127.444 297.031 126.941 297.335 126.56C297.639 126.173 298.078 125.877 298.653 125.673C299.228 125.463 299.894 125.358 300.651 125.358C301.403 125.358 302.013 125.446 302.483 125.623C302.953 125.8 303.298 126.024 303.519 126.295C303.74 126.56 303.895 126.897 303.984 127.306C304.033 127.56 304.058 128.019 304.058 128.682V130.672C304.058 132.059 304.089 132.938 304.149 133.308C304.216 133.673 304.343 134.024 304.531 134.361H302.972C302.817 134.052 302.718 133.69 302.674 133.275ZM302.549 129.943C302.008 130.164 301.195 130.352 300.112 130.506C299.498 130.595 299.065 130.694 298.81 130.805C298.556 130.915 298.36 131.078 298.222 131.294C298.084 131.504 298.014 131.739 298.014 131.999C298.014 132.397 298.164 132.728 298.462 132.993C298.766 133.259 299.208 133.391 299.789 133.391C300.363 133.391 300.875 133.267 301.322 133.018C301.77 132.764 302.099 132.419 302.309 131.982C302.469 131.645 302.549 131.147 302.549 130.49V129.943ZM305.974 137.752L305.808 136.351C306.134 136.439 306.419 136.484 306.662 136.484C306.993 136.484 307.259 136.428 307.458 136.318C307.657 136.207 307.82 136.053 307.947 135.854C308.041 135.704 308.193 135.334 308.403 134.743C308.43 134.66 308.475 134.538 308.535 134.378L305.194 125.557H306.803L308.635 130.656C308.872 131.302 309.085 131.982 309.273 132.695C309.445 132.01 309.649 131.341 309.887 130.689L311.769 125.557H313.261L309.912 134.511C309.552 135.478 309.273 136.144 309.074 136.509C308.809 137 308.505 137.36 308.162 137.586C307.82 137.818 307.411 137.934 306.935 137.934C306.648 137.934 306.327 137.874 305.974 137.752ZM313.593 131.733L315.068 131.501C315.151 132.093 315.381 132.546 315.757 132.861C316.138 133.176 316.669 133.333 317.348 133.333C318.034 133.333 318.542 133.195 318.874 132.919C319.205 132.637 319.371 132.308 319.371 131.932C319.371 131.595 319.225 131.33 318.932 131.136C318.727 131.004 318.219 130.835 317.406 130.631C316.312 130.354 315.552 130.117 315.127 129.918C314.706 129.713 314.386 129.434 314.165 129.08C313.949 128.721 313.842 128.326 313.842 127.895C313.842 127.502 313.93 127.14 314.107 126.809C314.289 126.472 314.535 126.193 314.845 125.971C315.077 125.8 315.392 125.656 315.79 125.54C316.193 125.419 316.624 125.358 317.083 125.358C317.774 125.358 318.379 125.457 318.899 125.656C319.424 125.855 319.811 126.126 320.059 126.469C320.308 126.806 320.479 127.259 320.573 127.828L319.114 128.027C319.048 127.574 318.854 127.221 318.534 126.966C318.219 126.712 317.771 126.585 317.191 126.585C316.506 126.585 316.016 126.698 315.723 126.925C315.431 127.151 315.284 127.417 315.284 127.721C315.284 127.914 315.345 128.088 315.466 128.243C315.588 128.403 315.779 128.536 316.038 128.641C316.188 128.696 316.627 128.823 317.357 129.022C318.412 129.304 319.147 129.536 319.562 129.719C319.982 129.896 320.311 130.155 320.548 130.498C320.786 130.841 320.905 131.266 320.905 131.775C320.905 132.272 320.758 132.742 320.466 133.184C320.178 133.621 319.761 133.961 319.214 134.204C318.667 134.441 318.048 134.56 317.357 134.56C316.213 134.56 315.339 134.323 314.737 133.847C314.14 133.372 313.759 132.667 313.593 131.733ZM332.496 134.361V133.068C331.81 134.063 330.879 134.56 329.702 134.56C329.182 134.56 328.696 134.461 328.243 134.262C327.795 134.063 327.461 133.814 327.239 133.516C327.024 133.212 326.872 132.841 326.783 132.405C326.723 132.112 326.692 131.648 326.692 131.012V125.557H328.185V130.44C328.185 131.219 328.215 131.744 328.276 132.015C328.37 132.408 328.569 132.717 328.873 132.944C329.177 133.165 329.552 133.275 330 133.275C330.448 133.275 330.868 133.162 331.26 132.935C331.653 132.703 331.929 132.391 332.089 131.999C332.255 131.601 332.338 131.026 332.338 130.274V125.557H333.83V134.361H332.496ZM335.24 131.733L336.716 131.501C336.799 132.093 337.028 132.546 337.404 132.861C337.785 133.176 338.316 133.333 338.996 133.333C339.681 133.333 340.189 133.195 340.521 132.919C340.853 132.637 341.018 132.308 341.018 131.932C341.018 131.595 340.872 131.33 340.579 131.136C340.375 131.004 339.866 130.835 339.054 130.631C337.959 130.354 337.199 130.117 336.774 129.918C336.354 129.713 336.033 129.434 335.812 129.08C335.597 128.721 335.489 128.326 335.489 127.895C335.489 127.502 335.577 127.14 335.754 126.809C335.936 126.472 336.182 126.193 336.492 125.971C336.724 125.8 337.039 125.656 337.437 125.54C337.84 125.419 338.272 125.358 338.73 125.358C339.421 125.358 340.026 125.457 340.546 125.656C341.071 125.855 341.458 126.126 341.707 126.469C341.955 126.806 342.127 127.259 342.221 127.828L340.761 128.027C340.695 127.574 340.502 127.221 340.181 126.966C339.866 126.712 339.418 126.585 338.838 126.585C338.153 126.585 337.664 126.698 337.371 126.925C337.078 127.151 336.931 127.417 336.931 127.721C336.931 127.914 336.992 128.088 337.114 128.243C337.235 128.403 337.426 128.536 337.686 128.641C337.835 128.696 338.274 128.823 339.004 129.022C340.059 129.304 340.795 129.536 341.209 129.719C341.629 129.896 341.958 130.155 342.196 130.498C342.433 130.841 342.552 131.266 342.552 131.775C342.552 132.272 342.406 132.742 342.113 133.184C341.825 133.621 341.408 133.961 340.861 134.204C340.314 134.441 339.695 134.56 339.004 134.56C337.86 134.56 336.987 134.323 336.384 133.847C335.787 133.372 335.406 132.667 335.24 131.733ZM350.014 131.526L351.556 131.717C351.313 132.618 350.862 133.317 350.205 133.814C349.547 134.312 348.707 134.56 347.684 134.56C346.396 134.56 345.374 134.165 344.617 133.375C343.865 132.579 343.489 131.465 343.489 130.034C343.489 128.553 343.871 127.403 344.633 126.585C345.396 125.767 346.385 125.358 347.601 125.358C348.779 125.358 349.74 125.759 350.486 126.56C351.233 127.361 351.606 128.489 351.606 129.943C351.606 130.031 351.603 130.164 351.597 130.34H345.031C345.087 131.308 345.36 132.048 345.852 132.562C346.344 133.076 346.957 133.333 347.693 133.333C348.24 133.333 348.707 133.19 349.094 132.902C349.48 132.615 349.787 132.156 350.014 131.526ZM345.114 129.114H350.03C349.964 128.373 349.776 127.817 349.467 127.447C348.991 126.872 348.375 126.585 347.618 126.585C346.933 126.585 346.355 126.814 345.885 127.273C345.421 127.732 345.164 128.345 345.114 129.114ZM363.229 131.136L364.697 131.327C364.536 132.338 364.125 133.132 363.462 133.706C362.804 134.276 361.994 134.56 361.032 134.56C359.828 134.56 358.858 134.168 358.122 133.383C357.393 132.593 357.028 131.462 357.028 129.992C357.028 129.042 357.186 128.21 357.501 127.497C357.816 126.784 358.294 126.251 358.935 125.897C359.582 125.538 360.284 125.358 361.041 125.358C361.997 125.358 362.779 125.601 363.387 126.088C363.995 126.568 364.385 127.254 364.556 128.144L363.105 128.367C362.967 127.776 362.721 127.331 362.367 127.033C362.019 126.734 361.596 126.585 361.099 126.585C360.347 126.585 359.736 126.856 359.267 127.397C358.797 127.934 358.562 128.785 358.562 129.951C358.562 131.134 358.788 131.993 359.242 132.529C359.695 133.065 360.286 133.333 361.016 133.333C361.602 133.333 362.091 133.154 362.483 132.794C362.876 132.435 363.124 131.883 363.229 131.136ZM365.601 134.361V122.208H367.093V134.361H365.601ZM368.519 129.959C368.519 128.329 368.973 127.121 369.879 126.336C370.636 125.684 371.559 125.358 372.648 125.358C373.858 125.358 374.848 125.756 375.616 126.552C376.384 127.342 376.768 128.436 376.768 129.835C376.768 130.968 376.597 131.86 376.254 132.513C375.917 133.159 375.422 133.662 374.77 134.021C374.124 134.381 373.416 134.56 372.648 134.56C371.415 134.56 370.418 134.165 369.655 133.375C368.898 132.584 368.519 131.446 368.519 129.959ZM370.053 129.959C370.053 131.087 370.299 131.932 370.791 132.496C371.283 133.054 371.902 133.333 372.648 133.333C373.389 133.333 374.005 133.051 374.497 132.488C374.989 131.924 375.235 131.065 375.235 129.909C375.235 128.821 374.986 127.997 374.488 127.439C373.996 126.875 373.383 126.593 372.648 126.593C371.902 126.593 371.283 126.872 370.791 127.431C370.299 127.989 370.053 128.832 370.053 129.959ZM377.589 131.733L379.065 131.501C379.148 132.093 379.377 132.546 379.753 132.861C380.134 133.176 380.665 133.333 381.345 133.333C382.03 133.333 382.539 133.195 382.87 132.919C383.202 132.637 383.368 132.308 383.368 131.932C383.368 131.595 383.221 131.33 382.928 131.136C382.724 131.004 382.215 130.835 381.403 130.631C380.309 130.354 379.549 130.117 379.123 129.918C378.703 129.713 378.382 129.434 378.161 129.08C377.946 128.721 377.838 128.326 377.838 127.895C377.838 127.502 377.926 127.14 378.103 126.809C378.286 126.472 378.532 126.193 378.841 125.971C379.073 125.8 379.388 125.656 379.786 125.54C380.19 125.419 380.621 125.358 381.08 125.358C381.77 125.358 382.376 125.457 382.895 125.656C383.42 125.855 383.807 126.126 384.056 126.469C384.305 126.806 384.476 127.259 384.57 127.828L383.111 128.027C383.044 127.574 382.851 127.221 382.53 126.966C382.215 126.712 381.768 126.585 381.187 126.585C380.502 126.585 380.013 126.698 379.72 126.925C379.427 127.151 379.281 127.417 379.281 127.721C379.281 127.914 379.341 128.088 379.463 128.243C379.585 128.403 379.775 128.536 380.035 128.641C380.184 128.696 380.624 128.823 381.353 129.022C382.409 129.304 383.144 129.536 383.558 129.719C383.978 129.896 384.307 130.155 384.545 130.498C384.783 130.841 384.901 131.266 384.901 131.775C384.901 132.272 384.755 132.742 384.462 133.184C384.175 133.621 383.757 133.961 383.21 134.204C382.663 134.441 382.044 134.56 381.353 134.56C380.209 134.56 379.336 134.323 378.733 133.847C378.137 133.372 377.755 132.667 377.589 131.733ZM392.363 131.526L393.905 131.717C393.662 132.618 393.212 133.317 392.554 133.814C391.896 134.312 391.056 134.56 390.034 134.56C388.746 134.56 387.723 134.165 386.966 133.375C386.214 132.579 385.839 131.465 385.839 130.034C385.839 128.553 386.22 127.403 386.983 126.585C387.745 125.767 388.735 125.358 389.951 125.358C391.128 125.358 392.09 125.759 392.836 126.56C393.582 127.361 393.955 128.489 393.955 129.943C393.955 130.031 393.952 130.164 393.947 130.34H387.381C387.436 131.308 387.709 132.048 388.201 132.562C388.693 133.076 389.307 133.333 390.042 133.333C390.589 133.333 391.056 133.19 391.443 132.902C391.83 132.615 392.137 132.156 392.363 131.526ZM387.464 129.114H392.38C392.313 128.373 392.125 127.817 391.816 127.447C391.341 126.872 390.724 126.585 389.967 126.585C389.282 126.585 388.704 126.814 388.235 127.273C387.77 127.732 387.513 128.345 387.464 129.114ZM401.16 134.361V133.25C400.601 134.124 399.781 134.56 398.697 134.56C397.995 134.56 397.349 134.367 396.757 133.98C396.172 133.593 395.716 133.054 395.389 132.363C395.069 131.667 394.909 130.868 394.909 129.967C394.909 129.089 395.055 128.293 395.348 127.58C395.641 126.861 396.08 126.311 396.666 125.93C397.252 125.549 397.907 125.358 398.631 125.358C399.162 125.358 399.634 125.471 400.049 125.698C400.463 125.919 400.8 126.209 401.06 126.568V122.208H402.544V134.361H401.16ZM396.442 129.967C396.442 131.095 396.68 131.938 397.155 132.496C397.631 133.054 398.192 133.333 398.838 133.333C399.49 133.333 400.043 133.068 400.496 132.537C400.955 132.001 401.184 131.186 401.184 130.092C401.184 128.887 400.952 128.003 400.488 127.439C400.024 126.875 399.452 126.593 398.772 126.593C398.109 126.593 397.553 126.864 397.106 127.406C396.663 127.947 396.442 128.801 396.442 129.967ZM306.098 151.136L307.565 151.327C307.405 152.338 306.993 153.132 306.33 153.706C305.672 154.276 304.863 154.56 303.901 154.56C302.696 154.56 301.726 154.168 300.991 153.383C300.262 152.593 299.897 151.462 299.897 149.992C299.897 149.042 300.054 148.21 300.369 147.497C300.684 146.784 301.162 146.251 301.804 145.897C302.45 145.538 303.152 145.358 303.909 145.358C304.865 145.358 305.648 145.601 306.255 146.088C306.863 146.568 307.253 147.254 307.424 148.144L305.974 148.367C305.835 147.776 305.589 147.331 305.236 147.033C304.888 146.734 304.465 146.585 303.967 146.585C303.216 146.585 302.605 146.856 302.135 147.397C301.665 147.934 301.43 148.785 301.43 149.951C301.43 151.134 301.657 151.993 302.11 152.529C302.563 153.065 303.155 153.333 303.884 153.333C304.47 153.333 304.959 153.154 305.352 152.794C305.744 152.435 305.993 151.883 306.098 151.136ZM314.248 153.275C313.695 153.745 313.162 154.077 312.648 154.27C312.139 154.464 311.592 154.56 311.006 154.56C310.039 154.56 309.296 154.325 308.776 153.856C308.257 153.38 307.997 152.775 307.997 152.04C307.997 151.609 308.094 151.217 308.287 150.863C308.486 150.504 308.743 150.216 309.058 150.001C309.379 149.785 309.738 149.622 310.136 149.511C310.429 149.434 310.871 149.359 311.462 149.288C312.667 149.144 313.554 148.973 314.123 148.774C314.129 148.569 314.132 148.439 314.132 148.384C314.132 147.776 313.991 147.348 313.709 147.099C313.328 146.762 312.761 146.593 312.009 146.593C311.307 146.593 310.788 146.718 310.451 146.966C310.119 147.209 309.873 147.643 309.713 148.268L308.254 148.069C308.386 147.444 308.605 146.941 308.909 146.56C309.213 146.173 309.652 145.877 310.227 145.673C310.802 145.463 311.468 145.358 312.225 145.358C312.977 145.358 313.587 145.446 314.057 145.623C314.527 145.8 314.872 146.024 315.093 146.295C315.314 146.56 315.469 146.897 315.558 147.306C315.607 147.56 315.632 148.019 315.632 148.682V150.672C315.632 152.059 315.663 152.938 315.723 153.308C315.79 153.673 315.917 154.024 316.105 154.361H314.546C314.391 154.052 314.292 153.69 314.248 153.275ZM314.123 149.943C313.582 150.164 312.769 150.352 311.686 150.506C311.073 150.595 310.639 150.694 310.384 150.805C310.13 150.915 309.934 151.078 309.796 151.294C309.658 151.504 309.589 151.739 309.589 151.999C309.589 152.397 309.738 152.728 310.036 152.993C310.34 153.259 310.782 153.391 311.363 153.391C311.937 153.391 312.449 153.267 312.896 153.018C313.344 152.764 313.673 152.419 313.883 151.982C314.043 151.645 314.123 151.147 314.123 150.49V149.943ZM317.614 157.736V145.557H318.974V146.701C319.294 146.253 319.656 145.919 320.06 145.698C320.463 145.471 320.952 145.358 321.527 145.358C322.279 145.358 322.942 145.551 323.517 145.938C324.092 146.325 324.525 146.872 324.818 147.58C325.111 148.282 325.258 149.053 325.258 149.893C325.258 150.794 325.095 151.606 324.769 152.33C324.448 153.049 323.978 153.601 323.359 153.988C322.746 154.37 322.099 154.56 321.419 154.56C320.922 154.56 320.474 154.455 320.076 154.245C319.684 154.035 319.36 153.77 319.106 153.449V157.736H317.614ZM318.965 150.009C318.965 151.142 319.195 151.979 319.653 152.521C320.112 153.062 320.668 153.333 321.32 153.333C321.983 153.333 322.55 153.054 323.019 152.496C323.495 151.932 323.732 151.062 323.732 149.885C323.732 148.763 323.5 147.922 323.036 147.364C322.577 146.806 322.027 146.527 321.386 146.527C320.751 146.527 320.187 146.825 319.695 147.422C319.208 148.014 318.965 148.876 318.965 150.009ZM329.984 153.027L330.199 154.345C329.779 154.433 329.403 154.477 329.072 154.477C328.53 154.477 328.11 154.392 327.811 154.22C327.513 154.049 327.303 153.825 327.181 153.549C327.06 153.267 326.999 152.678 326.999 151.783V146.718H325.905V145.557H326.999V143.377L328.483 142.481V145.557H329.984V146.718H328.483V151.866C328.483 152.291 328.508 152.565 328.558 152.687C328.613 152.808 328.699 152.905 328.815 152.977C328.936 153.049 329.108 153.085 329.329 153.085C329.494 153.085 329.713 153.065 329.984 153.027ZM331.12 143.924V142.208H332.612V143.924H331.12ZM331.12 154.361V145.557H332.612V154.361H331.12ZM333.997 149.959C333.997 148.329 334.45 147.121 335.356 146.336C336.114 145.684 337.037 145.358 338.125 145.358C339.336 145.358 340.325 145.756 341.093 146.552C341.862 147.342 342.246 148.436 342.246 149.835C342.246 150.968 342.074 151.86 341.732 152.513C341.395 153.159 340.9 153.662 340.248 154.021C339.601 154.381 338.894 154.56 338.125 154.56C336.893 154.56 335.895 154.165 335.133 153.375C334.375 152.584 333.997 151.446 333.997 149.959ZM335.531 149.959C335.531 151.087 335.776 151.932 336.268 152.496C336.76 153.054 337.379 153.333 338.125 153.333C338.866 153.333 339.482 153.051 339.974 152.488C340.466 151.924 340.712 151.065 340.712 149.909C340.712 148.821 340.463 147.997 339.966 147.439C339.474 146.875 338.86 146.593 338.125 146.593C337.379 146.593 336.76 146.872 336.268 147.431C335.776 147.989 335.531 148.832 335.531 149.959ZM343.664 154.361V145.557H345.007V146.809C345.653 145.842 346.587 145.358 347.809 145.358C348.339 145.358 348.826 145.455 349.268 145.648C349.716 145.836 350.05 146.085 350.271 146.394C350.492 146.704 350.647 147.071 350.735 147.497C350.791 147.773 350.818 148.257 350.818 148.948V154.361H349.326V149.006C349.326 148.398 349.268 147.945 349.152 147.646C349.036 147.342 348.829 147.102 348.53 146.925C348.237 146.742 347.892 146.651 347.494 146.651C346.858 146.651 346.308 146.853 345.844 147.256C345.385 147.66 345.156 148.425 345.156 149.553V154.361H343.664ZM352.783 143.924V142.208H354.276V143.924H352.783ZM352.783 154.361V145.557H354.276V154.361H352.783ZM356.216 154.361V145.557H357.559V146.809C358.206 145.842 359.14 145.358 360.361 145.358C360.892 145.358 361.378 145.455 361.82 145.648C362.268 145.836 362.602 146.085 362.823 146.394C363.045 146.704 363.199 147.071 363.288 147.497C363.343 147.773 363.371 148.257 363.371 148.948V154.361H361.878V149.006C361.878 148.398 361.82 147.945 361.704 147.646C361.588 147.342 361.381 147.102 361.082 146.925C360.79 146.742 360.444 146.651 360.046 146.651C359.411 146.651 358.861 146.853 358.396 147.256C357.938 147.66 357.708 148.425 357.708 149.553V154.361H356.216ZM365.054 155.091L366.505 155.306C366.566 155.754 366.734 156.08 367.01 156.285C367.381 156.561 367.886 156.699 368.528 156.699C369.218 156.699 369.752 156.561 370.128 156.285C370.503 156.008 370.758 155.621 370.89 155.124C370.968 154.82 371.004 154.182 370.998 153.209C370.346 153.977 369.533 154.361 368.561 154.361C367.35 154.361 366.414 153.925 365.75 153.051C365.087 152.178 364.755 151.131 364.755 149.909C364.755 149.069 364.907 148.296 365.211 147.588C365.515 146.875 365.955 146.325 366.53 145.938C367.11 145.551 367.79 145.358 368.569 145.358C369.608 145.358 370.465 145.778 371.139 146.618V145.557H372.515V153.168C372.515 154.538 372.374 155.508 372.092 156.077C371.816 156.652 371.374 157.105 370.766 157.437C370.164 157.769 369.42 157.934 368.536 157.934C367.486 157.934 366.637 157.697 365.991 157.222C365.344 156.752 365.032 156.042 365.054 155.091ZM366.289 149.802C366.289 150.957 366.519 151.8 366.977 152.33C367.436 152.861 368.011 153.126 368.702 153.126C369.387 153.126 369.962 152.864 370.426 152.338C370.89 151.808 371.122 150.979 371.122 149.851C371.122 148.774 370.882 147.961 370.401 147.414C369.926 146.867 369.351 146.593 368.677 146.593C368.014 146.593 367.45 146.864 366.986 147.406C366.521 147.942 366.289 148.74 366.289 149.802Z" fill="#282828"/>
<circle cx="567.893" cy="105" r="104.553" stroke="#282828" stroke-width="0.893617"/>
<path d="M513.521 94.3613V87.0243H498.599V80.906L514.417 57.751H520.286V80.8811H524.813V87.0243H520.286V94.3613H513.521ZM513.521 80.8811V68.4207L505.14 80.8811H513.521ZM538.966 57.751C542.497 57.751 545.258 59.0111 547.248 61.5314C549.619 64.5159 550.804 69.4653 550.804 76.3795C550.804 83.2771 549.61 88.2347 547.223 91.2524C545.25 93.7395 542.497 94.9831 538.966 94.9831C535.417 94.9831 532.557 93.6235 530.385 90.9042C528.213 88.1684 527.127 83.3019 527.127 76.3049C527.127 69.4404 528.321 64.4993 530.708 61.4816C532.681 58.9945 535.434 57.751 538.966 57.751ZM538.966 63.5459C538.12 63.5459 537.366 63.8195 536.702 64.3667C536.039 64.8973 535.525 65.859 535.16 67.2517C534.679 69.059 534.439 72.1016 534.439 76.3795C534.439 80.6573 534.655 83.6004 535.086 85.2087C535.517 86.8005 536.056 87.8617 536.702 88.3922C537.366 88.9228 538.12 89.1881 538.966 89.1881C539.811 89.1881 540.566 88.9228 541.229 88.3922C541.892 87.8451 542.406 86.8751 542.771 85.4823C543.252 83.6916 543.492 80.6573 543.492 76.3795C543.492 72.1016 543.277 69.1668 542.845 67.5751C542.414 65.9667 541.867 64.8973 541.204 64.3667C540.557 63.8195 539.811 63.5459 538.966 63.5459ZM555.978 94.3613V87.3725H562.967V94.3613H555.978ZM567.644 64.889V58.3976H591.545V63.4713C589.572 65.4113 587.566 68.1968 585.526 71.828C583.487 75.4592 581.928 79.3226 580.851 83.418C579.789 87.4969 579.267 91.1447 579.284 94.3613H572.544C572.66 89.3208 573.696 84.1807 575.653 78.9412C577.626 73.7017 580.254 69.0176 583.537 64.889H567.644ZM595.028 66.9035C595.028 63.6371 595.741 61.2163 597.167 59.6412C598.61 58.066 600.558 57.2784 603.012 57.2784C605.549 57.2784 607.53 58.066 608.956 59.6412C610.399 61.1998 611.12 63.6206 611.12 66.9035C611.12 70.17 610.399 72.5908 608.956 74.1659C607.53 75.7411 605.59 76.5287 603.136 76.5287C600.599 76.5287 598.61 75.7494 597.167 74.1908C595.741 72.6156 595.028 70.1865 595.028 66.9035ZM600.475 66.8538C600.475 69.2249 600.749 70.8166 601.296 71.6291C601.71 72.226 602.282 72.5244 603.012 72.5244C603.758 72.5244 604.338 72.226 604.753 71.6291C605.283 70.8166 605.549 69.2249 605.549 66.8538C605.549 64.4828 605.283 62.8993 604.753 62.1034C604.338 61.4899 603.758 61.1832 603.012 61.1832C602.282 61.1832 601.71 61.4816 601.296 62.0785C600.749 62.891 600.475 64.4828 600.475 66.8538ZM608.334 95.7541H603.161L622.585 57.2784H627.609L608.334 95.7541ZM619.626 86.1787C619.626 82.9123 620.339 80.4915 621.765 78.9163C623.207 77.3412 625.172 76.5536 627.659 76.5536C630.163 76.5536 632.128 77.3412 633.554 78.9163C634.996 80.4915 635.717 82.9123 635.717 86.1787C635.717 89.4617 634.996 91.8908 633.554 93.466C632.128 95.0411 630.188 95.8287 627.734 95.8287C625.197 95.8287 623.207 95.0411 621.765 93.466C620.339 91.8908 619.626 89.4617 619.626 86.1787ZM625.073 86.1538C625.073 88.5249 625.346 90.1084 625.893 90.9042C626.308 91.5177 626.88 91.8245 627.609 91.8245C628.356 91.8245 628.928 91.526 629.326 90.9291C629.873 90.1166 630.146 88.5249 630.146 86.1538C630.146 83.7828 629.881 82.191 629.35 81.3786C628.936 80.7817 628.356 80.4832 627.609 80.4832C626.863 80.4832 626.291 80.7817 625.893 81.3786C625.346 82.191 625.073 83.7828 625.073 86.1538ZM508.841 129.594V128.168L513.989 128.16V132.67C513.199 133.3 512.383 133.775 511.543 134.096C510.703 134.411 509.841 134.569 508.957 134.569C507.763 134.569 506.677 134.314 505.699 133.806C504.726 133.292 503.991 132.551 503.493 131.584C502.996 130.617 502.747 129.536 502.747 128.343C502.747 127.16 502.993 126.057 503.485 125.035C503.982 124.007 504.695 123.244 505.624 122.746C506.552 122.249 507.622 122 508.832 122C509.711 122 510.504 122.144 511.212 122.431C511.925 122.713 512.483 123.109 512.886 123.617C513.29 124.125 513.597 124.789 513.807 125.607L512.356 126.005C512.173 125.386 511.947 124.899 511.676 124.546C511.405 124.192 511.018 123.91 510.515 123.7C510.012 123.484 509.454 123.377 508.841 123.377C508.106 123.377 507.47 123.49 506.934 123.716C506.398 123.938 505.964 124.23 505.632 124.595C505.306 124.96 505.052 125.361 504.87 125.797C504.56 126.549 504.405 127.364 504.405 128.243C504.405 129.326 504.59 130.233 504.961 130.962C505.337 131.692 505.881 132.233 506.594 132.587C507.307 132.941 508.064 133.118 508.865 133.118C509.562 133.118 510.242 132.985 510.905 132.72C511.568 132.449 512.071 132.162 512.414 131.858V129.594H508.841ZM521.865 131.526L523.407 131.717C523.164 132.618 522.714 133.317 522.056 133.814C521.398 134.312 520.558 134.56 519.536 134.56C518.248 134.56 517.225 134.165 516.468 133.375C515.716 132.579 515.341 131.465 515.341 130.034C515.341 128.553 515.722 127.403 516.485 126.585C517.247 125.767 518.237 125.358 519.453 125.358C520.63 125.358 521.592 125.759 522.338 126.56C523.084 127.361 523.457 128.489 523.457 129.943C523.457 130.031 523.454 130.164 523.449 130.34H516.883C516.938 131.308 517.211 132.048 517.703 132.562C518.195 133.076 518.809 133.333 519.544 133.333C520.091 133.333 520.558 133.19 520.945 132.902C521.332 132.615 521.639 132.156 521.865 131.526ZM516.966 129.114H521.882C521.815 128.373 521.627 127.817 521.318 127.447C520.843 126.872 520.226 126.585 519.469 126.585C518.784 126.585 518.206 126.814 517.737 127.273C517.272 127.732 517.015 128.345 516.966 129.114ZM524.95 134.361V125.557H526.293V126.809C526.939 125.842 527.873 125.358 529.095 125.358C529.625 125.358 530.112 125.455 530.554 125.648C531.001 125.836 531.336 126.085 531.557 126.394C531.778 126.704 531.933 127.071 532.021 127.497C532.076 127.773 532.104 128.257 532.104 128.948V134.361H530.612V129.006C530.612 128.398 530.554 127.945 530.438 127.646C530.322 127.342 530.114 127.102 529.816 126.925C529.523 126.742 529.178 126.651 528.78 126.651C528.144 126.651 527.594 126.853 527.13 127.256C526.671 127.66 526.442 128.425 526.442 129.553V134.361H524.95ZM540.088 131.526L541.63 131.717C541.387 132.618 540.936 133.317 540.279 133.814C539.621 134.312 538.781 134.56 537.758 134.56C536.471 134.56 535.448 134.165 534.691 133.375C533.939 132.579 533.564 131.465 533.564 130.034C533.564 128.553 533.945 127.403 534.708 126.585C535.47 125.767 536.46 125.358 537.676 125.358C538.853 125.358 539.815 125.759 540.561 126.56C541.307 127.361 541.68 128.489 541.68 129.943C541.68 130.031 541.677 130.164 541.672 130.34H535.106C535.161 131.308 535.434 132.048 535.926 132.562C536.418 133.076 537.032 133.333 537.767 133.333C538.314 133.333 538.781 133.19 539.168 132.902C539.555 132.615 539.861 132.156 540.088 131.526ZM535.188 129.114H540.105C540.038 128.373 539.85 127.817 539.541 127.447C539.066 126.872 538.449 126.585 537.692 126.585C537.007 126.585 536.429 126.814 535.959 127.273C535.495 127.732 535.238 128.345 535.188 129.114ZM543.156 134.361V125.557H544.499V126.892C544.842 126.267 545.157 125.855 545.444 125.656C545.737 125.457 546.058 125.358 546.406 125.358C546.909 125.358 547.42 125.518 547.939 125.839L547.425 127.223C547.061 127.008 546.696 126.9 546.331 126.9C546.005 126.9 545.712 126.999 545.452 127.198C545.193 127.392 545.007 127.663 544.897 128.011C544.731 128.541 544.648 129.122 544.648 129.752V134.361H543.156ZM554.232 133.275C553.679 133.745 553.146 134.077 552.632 134.27C552.124 134.464 551.576 134.56 550.991 134.56C550.023 134.56 549.28 134.325 548.761 133.856C548.241 133.38 547.981 132.775 547.981 132.04C547.981 131.609 548.078 131.217 548.271 130.863C548.47 130.504 548.727 130.216 549.042 130.001C549.363 129.785 549.722 129.622 550.12 129.511C550.413 129.434 550.855 129.359 551.447 129.288C552.651 129.144 553.539 128.973 554.108 128.774C554.113 128.569 554.116 128.439 554.116 128.384C554.116 127.776 553.975 127.348 553.693 127.099C553.312 126.762 552.745 126.593 551.994 126.593C551.292 126.593 550.772 126.718 550.435 126.966C550.104 127.209 549.858 127.643 549.697 128.268L548.238 128.069C548.371 127.444 548.589 126.941 548.893 126.56C549.197 126.173 549.637 125.877 550.211 125.673C550.786 125.463 551.452 125.358 552.209 125.358C552.961 125.358 553.572 125.446 554.041 125.623C554.511 125.8 554.857 126.024 555.078 126.295C555.299 126.56 555.454 126.897 555.542 127.306C555.592 127.56 555.617 128.019 555.617 128.682V130.672C555.617 132.059 555.647 132.938 555.708 133.308C555.774 133.673 555.901 134.024 556.089 134.361H554.531C554.376 134.052 554.276 133.69 554.232 133.275ZM554.108 129.943C553.566 130.164 552.754 130.352 551.67 130.506C551.057 130.595 550.623 130.694 550.369 130.805C550.115 130.915 549.918 131.078 549.78 131.294C549.642 131.504 549.573 131.739 549.573 131.999C549.573 132.397 549.722 132.728 550.021 132.993C550.325 133.259 550.767 133.391 551.347 133.391C551.922 133.391 552.433 133.267 552.881 133.018C553.329 132.764 553.657 132.419 553.867 131.982C554.028 131.645 554.108 131.147 554.108 130.49V129.943ZM557.565 134.361V122.208H559.058V134.361H557.565ZM561.006 134.361V122.208H562.498V134.361H561.006ZM564.414 137.752L564.248 136.351C564.574 136.439 564.859 136.484 565.102 136.484C565.433 136.484 565.699 136.428 565.898 136.318C566.097 136.207 566.26 136.053 566.387 135.854C566.481 135.704 566.633 135.334 566.843 134.743C566.87 134.66 566.915 134.538 566.975 134.378L563.634 125.557H565.243L567.075 130.656C567.313 131.302 567.525 131.982 567.713 132.695C567.885 132.01 568.089 131.341 568.327 130.689L570.209 125.557H571.701L568.352 134.511C567.992 135.478 567.713 136.144 567.514 136.509C567.249 137 566.945 137.36 566.602 137.586C566.26 137.818 565.851 137.934 565.375 137.934C565.088 137.934 564.767 137.874 564.414 137.752ZM577.016 134.361V125.557H578.351V126.792C578.627 126.361 578.994 126.016 579.453 125.756C579.912 125.491 580.434 125.358 581.02 125.358C581.672 125.358 582.206 125.493 582.62 125.764C583.04 126.035 583.336 126.414 583.507 126.9C584.204 125.872 585.11 125.358 586.226 125.358C587.1 125.358 587.771 125.601 588.241 126.088C588.711 126.568 588.946 127.312 588.946 128.318V134.361H587.462V128.815C587.462 128.218 587.412 127.79 587.312 127.53C587.219 127.265 587.044 127.052 586.79 126.892C586.536 126.731 586.238 126.651 585.895 126.651C585.276 126.651 584.762 126.859 584.353 127.273C583.944 127.682 583.739 128.34 583.739 129.246V134.361H582.247V128.641C582.247 127.978 582.125 127.48 581.882 127.149C581.639 126.817 581.241 126.651 580.688 126.651C580.268 126.651 579.879 126.762 579.52 126.983C579.166 127.204 578.909 127.527 578.749 127.953C578.588 128.378 578.508 128.992 578.508 129.793V134.361H577.016ZM590.828 123.924V122.208H592.32V123.924H590.828ZM590.828 134.361V125.557H592.32V134.361H590.828ZM593.664 131.733L595.139 131.501C595.222 132.093 595.452 132.546 595.827 132.861C596.209 133.176 596.739 133.333 597.419 133.333C598.104 133.333 598.613 133.195 598.945 132.919C599.276 132.637 599.442 132.308 599.442 131.932C599.442 131.595 599.296 131.33 599.003 131.136C598.798 131.004 598.29 130.835 597.477 130.631C596.383 130.354 595.623 130.117 595.197 129.918C594.777 129.713 594.457 129.434 594.236 129.08C594.02 128.721 593.912 128.326 593.912 127.895C593.912 127.502 594.001 127.14 594.178 126.809C594.36 126.472 594.606 126.193 594.915 125.971C595.148 125.8 595.463 125.656 595.861 125.54C596.264 125.419 596.695 125.358 597.154 125.358C597.845 125.358 598.45 125.457 598.969 125.656C599.495 125.855 599.881 126.126 600.13 126.469C600.379 126.806 600.55 127.259 600.644 127.828L599.185 128.027C599.119 127.574 598.925 127.221 598.605 126.966C598.29 126.712 597.842 126.585 597.262 126.585C596.576 126.585 596.087 126.698 595.794 126.925C595.501 127.151 595.355 127.417 595.355 127.721C595.355 127.914 595.416 128.088 595.537 128.243C595.659 128.403 595.849 128.536 596.109 128.641C596.258 128.696 596.698 128.823 597.427 129.022C598.483 129.304 599.218 129.536 599.633 129.719C600.053 129.896 600.382 130.155 600.619 130.498C600.857 130.841 600.976 131.266 600.976 131.775C600.976 132.272 600.829 132.742 600.536 133.184C600.249 133.621 599.832 133.961 599.284 134.204C598.737 134.441 598.118 134.56 597.427 134.56C596.283 134.56 595.41 134.323 594.808 133.847C594.211 133.372 593.829 132.667 593.664 131.733ZM602.41 134.361V122.208H603.903V126.568C604.599 125.761 605.478 125.358 606.539 125.358C607.191 125.358 607.758 125.488 608.238 125.748C608.719 126.002 609.062 126.356 609.266 126.809C609.476 127.262 609.581 127.92 609.581 128.782V134.361H608.089V128.782C608.089 128.036 607.926 127.494 607.6 127.157C607.28 126.814 606.824 126.643 606.232 126.643C605.79 126.643 605.373 126.759 604.98 126.991C604.593 127.218 604.317 127.527 604.151 127.92C603.985 128.312 603.903 128.854 603.903 129.545V134.361H602.41ZM617.549 131.526L619.091 131.717C618.848 132.618 618.397 133.317 617.74 133.814C617.082 134.312 616.242 134.56 615.219 134.56C613.932 134.56 612.909 134.165 612.152 133.375C611.4 132.579 611.024 131.465 611.024 130.034C611.024 128.553 611.406 127.403 612.168 126.585C612.931 125.767 613.92 125.358 615.136 125.358C616.314 125.358 617.275 125.759 618.021 126.56C618.768 127.361 619.141 128.489 619.141 129.943C619.141 130.031 619.138 130.164 619.132 130.34H612.566C612.622 131.308 612.895 132.048 613.387 132.562C613.879 133.076 614.492 133.333 615.228 133.333C615.775 133.333 616.242 133.19 616.629 132.902C617.016 132.615 617.322 132.156 617.549 131.526ZM612.649 129.114H617.565C617.499 128.373 617.311 127.817 617.002 127.447C616.526 126.872 615.91 126.585 615.153 126.585C614.468 126.585 613.89 126.814 613.42 127.273C612.956 127.732 612.699 128.345 612.649 129.114ZM626.378 133.275C625.826 133.745 625.292 134.077 624.778 134.27C624.27 134.464 623.723 134.56 623.137 134.56C622.17 134.56 621.426 134.325 620.907 133.856C620.387 133.38 620.128 132.775 620.128 132.04C620.128 131.609 620.224 131.217 620.418 130.863C620.617 130.504 620.874 130.216 621.189 130.001C621.509 129.785 621.869 129.622 622.266 129.511C622.559 129.434 623.002 129.359 623.593 129.288C624.798 129.144 625.685 128.973 626.254 128.774C626.26 128.569 626.262 128.439 626.262 128.384C626.262 127.776 626.121 127.348 625.84 127.099C625.458 126.762 624.892 126.593 624.14 126.593C623.438 126.593 622.919 126.718 622.581 126.966C622.25 127.209 622.004 127.643 621.844 128.268L620.385 128.069C620.517 127.444 620.735 126.941 621.039 126.56C621.343 126.173 621.783 125.877 622.358 125.673C622.932 125.463 623.598 125.358 624.356 125.358C625.107 125.358 625.718 125.446 626.188 125.623C626.658 125.8 627.003 126.024 627.224 126.295C627.445 126.56 627.6 126.897 627.688 127.306C627.738 127.56 627.763 128.019 627.763 128.682V130.672C627.763 132.059 627.793 132.938 627.854 133.308C627.92 133.673 628.048 134.024 628.236 134.361H626.677C626.522 134.052 626.423 133.69 626.378 133.275ZM626.254 129.943C625.712 130.164 624.9 130.352 623.817 130.506C623.203 130.595 622.769 130.694 622.515 130.805C622.261 130.915 622.065 131.078 621.927 131.294C621.788 131.504 621.719 131.739 621.719 131.999C621.719 132.397 621.869 132.728 622.167 132.993C622.471 133.259 622.913 133.391 623.493 133.391C624.068 133.391 624.579 133.267 625.027 133.018C625.475 132.764 625.804 132.419 626.014 131.982C626.174 131.645 626.254 131.147 626.254 130.49V129.943ZM629.728 134.361V125.557H631.071V126.892C631.414 126.267 631.729 125.855 632.016 125.656C632.309 125.457 632.63 125.358 632.978 125.358C633.481 125.358 633.992 125.518 634.512 125.839L633.998 127.223C633.633 127.008 633.268 126.9 632.903 126.9C632.577 126.9 632.284 126.999 632.025 127.198C631.765 127.392 631.58 127.663 631.469 128.011C631.303 128.541 631.22 129.122 631.22 129.752V134.361H629.728ZM544.342 157.736V145.557H545.702V146.701C546.022 146.253 546.384 145.919 546.788 145.698C547.191 145.471 547.68 145.358 548.255 145.358C549.007 145.358 549.67 145.551 550.245 145.938C550.82 146.325 551.253 146.872 551.546 147.58C551.839 148.282 551.986 149.053 551.986 149.893C551.986 150.794 551.823 151.606 551.497 152.33C551.176 153.049 550.706 153.601 550.087 153.988C549.474 154.37 548.827 154.56 548.147 154.56C547.65 154.56 547.202 154.455 546.804 154.245C546.412 154.035 546.089 153.77 545.834 153.449V157.736H544.342ZM545.693 150.009C545.693 151.142 545.923 151.979 546.381 152.521C546.84 153.062 547.396 153.333 548.048 153.333C548.711 153.333 549.278 153.054 549.747 152.496C550.223 151.932 550.46 151.062 550.46 149.885C550.46 148.763 550.228 147.922 549.764 147.364C549.305 146.806 548.755 146.527 548.114 146.527C547.479 146.527 546.915 146.825 546.423 147.422C545.937 148.014 545.693 148.876 545.693 150.009ZM559.481 151.526L561.023 151.717C560.779 152.618 560.329 153.317 559.671 153.814C559.014 154.312 558.174 154.56 557.151 154.56C555.863 154.56 554.841 154.165 554.084 153.375C553.332 152.579 552.956 151.465 552.956 150.034C552.956 148.553 553.337 147.403 554.1 146.585C554.863 145.767 555.852 145.358 557.068 145.358C558.245 145.358 559.207 145.759 559.953 146.56C560.699 147.361 561.072 148.489 561.072 149.943C561.072 150.031 561.07 150.164 561.064 150.34H554.498C554.553 151.308 554.827 152.048 555.319 152.562C555.811 153.076 556.424 153.333 557.159 153.333C557.707 153.333 558.174 153.19 558.56 152.902C558.947 152.615 559.254 152.156 559.481 151.526ZM554.581 149.114H559.497C559.431 148.373 559.243 147.817 558.933 147.447C558.458 146.872 557.842 146.585 557.085 146.585C556.399 146.585 555.822 146.814 555.352 147.273C554.888 147.732 554.631 148.345 554.581 149.114ZM562.01 149.959C562.01 148.329 562.463 147.121 563.369 146.336C564.126 145.684 565.049 145.358 566.138 145.358C567.349 145.358 568.338 145.756 569.106 146.552C569.874 147.342 570.258 148.436 570.258 149.835C570.258 150.968 570.087 151.86 569.744 152.513C569.407 153.159 568.913 153.662 568.261 154.021C567.614 154.381 566.906 154.56 566.138 154.56C564.906 154.56 563.908 154.165 563.145 153.375C562.388 152.584 562.01 151.446 562.01 149.959ZM563.543 149.959C563.543 151.087 563.789 151.932 564.281 152.496C564.773 153.054 565.392 153.333 566.138 153.333C566.879 153.333 567.495 153.051 567.987 152.488C568.479 151.924 568.725 151.065 568.725 149.909C568.725 148.821 568.476 147.997 567.979 147.439C567.487 146.875 566.873 146.593 566.138 146.593C565.392 146.593 564.773 146.872 564.281 147.431C563.789 147.989 563.543 148.832 563.543 149.959ZM571.676 157.736V145.557H573.036V146.701C573.357 146.253 573.719 145.919 574.122 145.698C574.526 145.471 575.015 145.358 575.59 145.358C576.341 145.358 577.004 145.551 577.579 145.938C578.154 146.325 578.588 146.872 578.881 147.58C579.174 148.282 579.32 149.053 579.32 149.893C579.32 150.794 579.157 151.606 578.831 152.33C578.511 153.049 578.041 153.601 577.422 153.988C576.808 154.37 576.162 154.56 575.482 154.56C574.984 154.56 574.537 154.455 574.139 154.245C573.746 154.035 573.423 153.77 573.169 153.449V157.736H571.676ZM573.028 150.009C573.028 151.142 573.257 151.979 573.716 152.521C574.175 153.062 574.73 153.333 575.382 153.333C576.046 153.333 576.612 153.054 577.082 152.496C577.557 151.932 577.795 151.062 577.795 149.885C577.795 148.763 577.563 147.922 577.098 147.364C576.64 146.806 576.09 146.527 575.449 146.527C574.813 146.527 574.249 146.825 573.757 147.422C573.271 148.014 573.028 148.876 573.028 150.009ZM580.755 154.361V142.208H582.247V154.361H580.755ZM590.256 151.526L591.798 151.717C591.555 152.618 591.104 153.317 590.447 153.814C589.789 154.312 588.949 154.56 587.926 154.56C586.639 154.56 585.616 154.165 584.859 153.375C584.107 152.579 583.731 151.465 583.731 150.034C583.731 148.553 584.113 147.403 584.875 146.585C585.638 145.767 586.627 145.358 587.843 145.358C589.021 145.358 589.982 145.759 590.728 146.56C591.475 147.361 591.848 148.489 591.848 149.943C591.848 150.031 591.845 150.164 591.839 150.34H585.273C585.329 151.308 585.602 152.048 586.094 152.562C586.586 153.076 587.2 153.333 587.935 153.333C588.482 153.333 588.949 153.19 589.336 152.902C589.723 152.615 590.029 152.156 590.256 151.526ZM585.356 149.114H590.272C590.206 148.373 590.018 147.817 589.709 147.447C589.233 146.872 588.617 146.585 587.86 146.585C587.175 146.585 586.597 146.814 586.127 147.273C585.663 147.732 585.406 148.345 585.356 149.114Z" fill="#282828"/>
</svg>
