<svg width="143" height="92" viewBox="0 0 143 92" fill="none" xmlns="http://www.w3.org/2000/svg">
<path d="M124.682 81.916C135.337 75.2364 140.226 64.3471 141.88 53.8699C143.705 42.2185 139.496 27.357 128.3 18.7026C117.314 10.1443 99.8827 9.59866 85.7774 7.03946C76.1293 5.23518 66.3792 3.34068 56.6103 1.78335C47.2686 0.249753 37.258 -0.813689 28.128 1.5539C-7.73227 10.7227 -4.81262 52.6539 17.2669 71.7211C30.0449 82.7464 49.6567 86.457 67.2769 89.3806C87.4555 92.5309 108.36 92.2548 124.682 81.916Z" fill="#282828"/>
<path d="M21.2238 26.088C21.9332 26.1067 22.5025 26.1347 22.9318 26.172C23.3798 26.2094 23.7438 26.2467 24.0238 26.284C24.3225 26.3027 24.6118 26.34 24.8918 26.396C25.6198 26.4707 26.2732 26.5827 26.8518 26.732C27.4305 26.8627 27.9251 27.068 28.3358 27.348C28.7465 27.628 29.0452 27.992 29.2318 28.44C29.4185 28.888 29.4652 29.4667 29.3718 30.176L29.0638 33.06C28.9892 33.6387 29.0078 34.1334 29.1198 34.544C29.2505 34.9547 29.5212 35.1507 29.9318 35.132C30.2865 35.1134 30.5945 34.9267 30.8558 34.572C31.1172 34.1987 31.3692 33.676 31.6118 33.004L31.7518 32.612H32.3958L32.2838 32.976C31.9478 34.1334 31.4718 34.992 30.8558 35.552C30.2398 36.112 29.3998 36.392 28.3358 36.392C27.1598 36.392 26.3198 36.1027 25.8158 35.524C25.3118 34.9267 25.1158 34.1894 25.2278 33.312L25.5638 30.176C25.6572 29.3174 25.6105 28.6267 25.4238 28.104C25.2558 27.5627 24.8452 27.1707 24.1918 26.928C23.5572 26.6667 22.5492 26.536 21.1678 26.536L21.2238 26.088ZM20.8318 26.508L20.9718 26.004H22.0078C23.0718 26.004 24.0052 25.864 24.8078 25.584C25.6292 25.2854 26.3198 24.8654 26.8798 24.324C27.4398 23.7827 27.8598 23.1294 28.1398 22.364C28.4385 21.5987 28.5878 20.74 28.5878 19.788C28.5878 18.7427 28.3545 17.9774 27.8878 17.492C27.4212 16.988 26.6838 16.736 25.6758 16.736C25.0225 16.736 24.5465 16.876 24.2478 17.156C23.9678 17.4174 23.7252 17.9494 23.5198 18.752L19.7118 33.032C19.5625 33.6107 19.4785 34.068 19.4598 34.404C19.4412 34.74 19.5718 34.992 19.8518 35.16C20.1505 35.328 20.6545 35.4214 21.3638 35.44L21.2518 36C20.7478 35.9627 20.1412 35.944 19.4318 35.944C18.7225 35.9254 17.9665 35.916 17.1638 35.916C16.3425 35.916 15.5398 35.9254 14.7558 35.944C13.9905 35.944 13.3745 35.9627 12.9078 36L13.0198 35.44C13.6545 35.4027 14.1492 35.328 14.5038 35.216C14.8585 35.104 15.1385 34.88 15.3438 34.544C15.5492 34.208 15.7358 33.704 15.9038 33.032L19.5998 19.144C19.7492 18.5654 19.8238 18.108 19.8238 17.772C19.8238 17.4174 19.6838 17.1654 19.4038 17.016C19.1238 16.848 18.6385 16.7547 17.9478 16.736L18.0878 16.176C18.3865 16.1947 18.7598 16.2134 19.2078 16.232C19.6558 16.232 20.1318 16.2414 20.6358 16.26C21.1585 16.26 21.6345 16.26 22.0638 16.26C22.8665 16.26 23.5945 16.2507 24.2478 16.232C24.9198 16.2134 25.5825 16.204 26.2358 16.204C28.3825 16.204 29.9692 16.54 30.9958 17.212C32.0225 17.8654 32.5358 18.836 32.5358 20.124C32.5358 21.3934 32.0878 22.504 31.1918 23.456C30.3145 24.408 29.0825 25.1547 27.4958 25.696C25.9092 26.2187 24.0612 26.48 21.9518 26.48L20.8318 26.508Z" fill="#F3F2ED"/>
<path d="M44.0246 26.312C43.3526 28.1787 42.7086 29.756 42.0926 31.044C41.4766 32.332 40.8606 33.368 40.2446 34.152C39.6472 34.936 39.0312 35.5054 38.3966 35.86C37.7806 36.2147 37.1366 36.392 36.4646 36.392C35.6432 36.392 35.0459 36.2054 34.6726 35.832C34.2992 35.4587 34.1126 34.9547 34.1126 34.32C34.1126 33.6854 34.2432 32.9667 34.5046 32.164L37.2206 23.988C37.4072 23.428 37.4726 22.9987 37.4166 22.7C37.3606 22.4014 37.1459 22.252 36.7726 22.252C36.4179 22.252 36.0632 22.448 35.7086 22.84C35.3726 23.232 35.0086 23.988 34.6166 25.108L34.2526 26.144H33.7206L34.4206 24.1C34.7006 23.316 35.0272 22.7187 35.4006 22.308C35.7926 21.8974 36.1939 21.6174 36.6046 21.468C37.0339 21.3 37.4352 21.216 37.8086 21.216C38.6299 21.216 39.1712 21.412 39.4326 21.804C39.7126 22.1774 39.8152 22.6627 39.7406 23.26C39.6846 23.8574 39.5446 24.4827 39.3206 25.136L36.6606 33.144C36.1379 34.712 36.3432 35.496 37.2766 35.496C37.7246 35.496 38.2006 35.3 38.7046 34.908C39.2086 34.4974 39.7219 33.9187 40.2446 33.172C40.7672 32.4067 41.2806 31.5014 41.7846 30.456C42.3072 29.392 42.8019 28.216 43.2686 26.928C43.7539 25.6214 44.1926 24.2214 44.5846 22.728L44.0246 26.312ZM43.9406 33.62C43.8099 34.124 43.7446 34.544 43.7446 34.88C43.7632 35.1974 43.9592 35.356 44.3326 35.356C44.7432 35.356 45.1166 35.1414 45.4526 34.712C45.8072 34.264 46.1619 33.5267 46.5166 32.5L46.8806 31.464H47.4126L46.7126 33.508C46.4512 34.292 46.1246 34.8894 45.7326 35.3C45.3592 35.7107 44.9579 35.9907 44.5286 36.14C44.1179 36.308 43.7166 36.392 43.3246 36.392C43.0259 36.392 42.7459 36.3267 42.4846 36.196C42.2232 36.0654 42.0272 35.8787 41.8966 35.636C41.7472 35.3187 41.6912 34.9174 41.7286 34.432C41.7846 33.9467 41.9152 33.2934 42.1206 32.472L44.8646 21.608C45.3312 21.5894 45.7792 21.552 46.2086 21.496C46.6566 21.44 47.0579 21.3467 47.4126 21.216L43.9406 33.62Z" fill="#F3F2ED"/>
<path d="M54.0593 21.188C54.806 21.188 55.4406 21.3094 55.9633 21.552C56.486 21.7947 56.8686 22.0187 57.1113 22.224C57.7273 22.728 58.1006 22.392 58.2313 21.216H58.8753C58.838 21.7387 58.81 22.364 58.7913 23.092C58.7726 23.8014 58.7633 24.7627 58.7633 25.976H58.1193C58.0073 25.2854 57.8113 24.6134 57.5313 23.96C57.27 23.3067 56.878 22.7747 56.3553 22.364C55.8326 21.9347 55.1513 21.72 54.3113 21.72C53.658 21.72 53.1073 21.9067 52.6593 22.28C52.23 22.6347 52.0153 23.1667 52.0153 23.876C52.0153 24.436 52.1833 24.9214 52.5193 25.332C52.8553 25.724 53.294 26.0974 53.8353 26.452C54.3766 26.788 54.9646 27.1614 55.5993 27.572C56.3086 28.02 56.9526 28.4774 57.5313 28.944C58.11 29.4107 58.5673 29.924 58.9033 30.484C59.258 31.044 59.4353 31.7067 59.4353 32.472C59.4353 33.3307 59.2113 34.0494 58.7633 34.628C58.3153 35.2067 57.7273 35.6454 56.9993 35.944C56.29 36.2427 55.506 36.392 54.6473 36.392C54.2366 36.392 53.8446 36.3547 53.4713 36.28C53.1166 36.224 52.7713 36.1307 52.4353 36C52.2486 35.9067 52.0526 35.7947 51.8473 35.664C51.6606 35.5334 51.474 35.3934 51.2873 35.244C51.1006 35.0947 50.9326 35.104 50.7833 35.272C50.634 35.4214 50.522 35.7294 50.4473 36.196H49.8033C49.8406 35.5987 49.8686 34.8707 49.8873 34.012C49.906 33.1534 49.9153 32.0147 49.9153 30.596H50.5593C50.69 31.6414 50.8766 32.556 51.1193 33.34C51.362 34.124 51.7446 34.74 52.2673 35.188C52.79 35.6174 53.518 35.832 54.4513 35.832C54.8246 35.832 55.198 35.748 55.5713 35.58C55.9633 35.412 56.29 35.132 56.5513 34.74C56.8126 34.348 56.9433 33.8254 56.9433 33.172C56.9433 32.3507 56.6446 31.6787 56.0473 31.156C55.45 30.6334 54.694 30.0827 53.7793 29.504C53.1073 29.0747 52.4726 28.6454 51.8753 28.216C51.2966 27.7867 50.8206 27.3014 50.4473 26.76C50.0926 26.2187 49.9153 25.5654 49.9153 24.8C49.9153 23.96 50.102 23.2787 50.4753 22.756C50.8673 22.2147 51.3806 21.8227 52.0153 21.58C52.65 21.3187 53.3313 21.188 54.0593 21.188Z" fill="#F3F2ED"/>
<path d="M66.2747 21.132C67.0587 21.132 67.7307 21.244 68.2907 21.468C68.8507 21.692 69.2614 21.888 69.5227 22.056C70.1574 22.5227 70.5401 22.224 70.6707 21.16H71.2867C71.2494 21.7014 71.2214 22.3454 71.2027 23.092C71.1841 23.82 71.1747 24.8 71.1747 26.032H70.5587C70.4654 25.3414 70.2881 24.6694 70.0267 24.016C69.7654 23.3627 69.3827 22.8214 68.8787 22.392C68.3747 21.944 67.7121 21.72 66.8907 21.72C66.3121 21.72 65.8267 21.888 65.4347 22.224C65.0614 22.56 64.8747 23.036 64.8747 23.652C64.8747 24.212 65.0427 24.7067 65.3787 25.136C65.7147 25.5467 66.1441 25.9387 66.6667 26.312C67.2081 26.6667 67.7681 27.0587 68.3467 27.488C69.0187 27.936 69.6161 28.3934 70.1387 28.86C70.6614 29.308 71.0814 29.812 71.3987 30.372C71.7161 30.9134 71.8747 31.5574 71.8747 32.304C71.8747 33.1627 71.6321 33.9 71.1467 34.516C70.6801 35.1134 70.0547 35.58 69.2707 35.916C68.5054 36.2334 67.6561 36.392 66.7227 36.392C66.2187 36.392 65.7614 36.3454 65.3507 36.252C64.9401 36.1587 64.5761 36.0374 64.2587 35.888C64.0161 35.7574 63.7921 35.636 63.5867 35.524C63.4001 35.412 63.2041 35.3187 62.9987 35.244C62.8121 35.1507 62.6441 35.188 62.4947 35.356C62.3641 35.524 62.2614 35.804 62.1867 36.196H61.5707C61.6081 35.5987 61.6361 34.8707 61.6547 34.012C61.6734 33.1534 61.6827 32.0147 61.6827 30.596H62.2987C62.4294 31.6227 62.6254 32.528 62.8867 33.312C63.1667 34.0774 63.5681 34.684 64.0907 35.132C64.6134 35.5614 65.2854 35.776 66.1067 35.776C66.4614 35.776 66.7974 35.7014 67.1147 35.552C67.4507 35.4027 67.7214 35.1694 67.9267 34.852C68.1507 34.5347 68.2627 34.1054 68.2627 33.564C68.2627 32.7427 67.9827 32.0614 67.4227 31.52C66.8627 30.9787 66.1627 30.4 65.3227 29.784C64.6881 29.3174 64.0907 28.86 63.5307 28.412C62.9894 27.964 62.5414 27.46 62.1867 26.9C61.8507 26.34 61.6827 25.6774 61.6827 24.912C61.6827 24.072 61.8974 23.3814 62.3267 22.84C62.7561 22.28 63.3161 21.86 64.0067 21.58C64.7161 21.2814 65.4721 21.132 66.2747 21.132Z" fill="#F3F2ED"/>
<path d="M80.4996 21.076C82.1423 21.076 83.4303 21.5614 84.3636 22.532C85.3156 23.484 85.7916 25.0894 85.7916 27.348H77.0276L76.9716 26.816H81.7036C81.7223 25.9014 81.6849 25.0614 81.5916 24.296C81.4983 23.512 81.3489 22.8867 81.1436 22.42C80.9383 21.9534 80.6583 21.72 80.3036 21.72C79.7996 21.72 79.3889 22.1214 79.0716 22.924C78.7543 23.708 78.5489 25.0614 78.4556 26.984L78.5676 27.208C78.5489 27.3947 78.5396 27.5814 78.5396 27.768C78.5396 27.9547 78.5396 28.1507 78.5396 28.356C78.5396 29.6627 78.6983 30.68 79.0156 31.408C79.3516 32.136 79.7623 32.64 80.2476 32.92C80.7516 33.2 81.2556 33.34 81.7596 33.34C82.0209 33.34 82.3289 33.3027 82.6836 33.228C83.0569 33.1534 83.4583 32.9854 83.8876 32.724C84.3169 32.444 84.7369 32.024 85.1476 31.464L85.6236 31.632C85.3996 32.3787 85.0356 33.1254 84.5316 33.872C84.0463 34.6 83.4116 35.2067 82.6276 35.692C81.8436 36.1587 80.8916 36.392 79.7716 36.392C78.5769 36.392 77.4849 36.1494 76.4956 35.664C75.5249 35.1787 74.7503 34.376 74.1716 33.256C73.5929 32.136 73.3036 30.6334 73.3036 28.748C73.3036 26.956 73.6209 25.5 74.2556 24.38C74.8903 23.2414 75.7489 22.4107 76.8316 21.888C77.9329 21.3467 79.1556 21.076 80.4996 21.076Z" fill="#F3F2ED"/>
<path d="M88.8136 33.62C88.6643 34.1614 88.6176 34.5907 88.6736 34.908C88.7296 35.2067 88.935 35.356 89.2896 35.356C89.663 35.356 90.0083 35.1507 90.3256 34.74C90.6616 34.3107 91.0163 33.564 91.3896 32.5L91.7536 31.464H92.2856L91.5856 33.508C91.343 34.2174 91.0443 34.7867 90.6896 35.216C90.3536 35.6267 89.9803 35.9254 89.5696 36.112C89.159 36.2987 88.711 36.392 88.2256 36.392C87.6096 36.392 87.1523 36.2707 86.8536 36.028C86.5736 35.804 86.3963 35.496 86.3216 35.104C86.2656 34.712 86.275 34.292 86.3496 33.844C86.443 33.3774 86.555 32.92 86.6856 32.472L91.2496 17.324C91.4363 16.6894 91.4176 16.2227 91.1936 15.924C90.9696 15.6254 90.4003 15.476 89.4856 15.476L89.6816 14.888C90.7083 14.8694 91.6136 14.7667 92.3976 14.58C93.1816 14.3747 93.9376 14.0947 94.6656 13.74L88.8136 33.62Z" fill="#F3F2ED"/>
<path d="M96.0193 33.62C95.8699 34.1614 95.8233 34.5907 95.8793 34.908C95.9353 35.2067 96.1406 35.356 96.4953 35.356C96.8686 35.356 97.2139 35.1507 97.5313 34.74C97.8673 34.3107 98.2219 33.564 98.5953 32.5L98.9593 31.464H99.4913L98.7913 33.508C98.5486 34.2174 98.2499 34.7867 97.8953 35.216C97.5593 35.6267 97.1859 35.9254 96.7753 36.112C96.3646 36.2987 95.9166 36.392 95.4313 36.392C94.8153 36.392 94.3579 36.2707 94.0593 36.028C93.7793 35.804 93.6019 35.496 93.5273 35.104C93.4713 34.712 93.4806 34.292 93.5553 33.844C93.6486 33.3774 93.7606 32.92 93.8913 32.472L98.4553 17.324C98.6419 16.6894 98.6233 16.2227 98.3993 15.924C98.1753 15.6254 97.6059 15.476 96.6913 15.476L96.8873 14.888C97.9139 14.8694 98.8193 14.7667 99.6033 14.58C100.387 14.3747 101.143 14.0947 101.871 13.74L96.0193 33.62Z" fill="#F3F2ED"/>
<path d="M21.1502 70L13.9861 49.9571H18.3748L23.4471 64.791L28.3553 49.9571H32.6483L25.4705 70H21.1502Z" fill="#F3F2ED"/>
<path d="M33.6058 53.5117V49.9571H37.4476V53.5117H33.6058ZM33.6058 70V55.4805H37.4476V70H33.6058Z" fill="#F3F2ED"/>
<path d="M40.2509 70V49.9571H42.2607V70H40.2509Z" fill="#F3F2ED"/>
<path d="M44.8042 70V49.9571H46.814V70H44.8042Z" fill="#F3F2ED"/>
<path d="M58.6543 68.1953C57.7976 68.9336 56.9727 69.4759 56.1797 69.8223C55.3868 70.1595 54.5391 70.3281 53.6368 70.3281C52.2969 70.3281 51.2168 69.9362 50.3965 69.1524C49.5762 68.3594 49.1661 67.3477 49.1661 66.1172C49.1661 65.306 49.3484 64.5905 49.7129 63.9707C50.0866 63.3418 50.5788 62.8405 51.1895 62.4668C51.8002 62.084 52.5476 61.8106 53.4317 61.6465C53.9877 61.5371 55.0404 61.4505 56.5899 61.3867C58.1485 61.3229 59.265 61.1589 59.9395 60.8946C60.1309 60.2201 60.2266 59.6595 60.2266 59.2129C60.2266 58.6387 60.017 58.1875 59.5977 57.8594C59.0235 57.4037 58.1849 57.1758 57.0821 57.1758C56.043 57.1758 55.1908 57.4082 54.5254 57.8731C53.8692 58.3288 53.3907 58.9805 53.0899 59.8281L50.5879 59.6094C51.0984 58.1693 51.905 57.0664 53.0079 56.3008C54.1198 55.5352 55.5189 55.1524 57.2051 55.1524C59.0007 55.1524 60.4226 55.5808 61.4708 56.4375C62.2728 57.0755 62.6739 57.905 62.6739 58.9258C62.6739 59.7005 62.5599 60.5983 62.3321 61.6192L61.5254 65.2285C61.2702 66.377 61.1426 67.3112 61.1426 68.0313C61.1426 68.487 61.2429 69.1432 61.4434 70H58.9415C58.8047 69.5261 58.709 68.9245 58.6543 68.1953ZM59.5704 62.6446C59.224 62.7813 58.8503 62.8861 58.4493 62.959C58.0573 63.0319 57.3965 63.1094 56.4668 63.1914C55.0267 63.319 54.0105 63.4831 53.418 63.6836C52.8256 63.875 52.379 64.1849 52.0782 64.6133C51.7774 65.0417 51.627 65.5156 51.627 66.0352C51.627 66.7279 51.864 67.2975 52.3379 67.7442C52.821 68.1908 53.5046 68.4141 54.3887 68.4141C55.209 68.4141 55.9974 68.1999 56.754 67.7715C57.5105 67.334 58.1075 66.7279 58.545 65.9531C58.9825 65.1784 59.3243 64.0755 59.5704 62.6446Z" fill="#F3F2ED"/>
<path d="M63.6588 65.9805L69.1822 65.461C69.4101 66.1172 69.7291 66.5866 70.1393 66.8692C70.5494 67.1517 71.0963 67.293 71.7799 67.293C72.5273 67.293 73.1061 67.1335 73.5162 66.8145C73.8352 66.5775 73.9947 66.2813 73.9947 65.9258C73.9947 65.5248 73.7851 65.2149 73.3658 64.9961C73.0651 64.8412 72.2675 64.6498 70.9733 64.4219C69.041 64.0847 67.6966 63.7748 66.9401 63.4922C66.1927 63.2005 65.5592 62.7129 65.0397 62.0293C64.5292 61.3457 64.274 60.5664 64.274 59.6914C64.274 58.7344 64.552 57.9095 65.108 57.2168C65.664 56.5241 66.4296 56.0091 67.4049 55.6719C68.3802 55.3255 69.6881 55.1524 71.3287 55.1524C73.0605 55.1524 74.3365 55.2845 75.1569 55.5489C75.9863 55.8132 76.6744 56.2233 77.2213 56.7793C77.7773 57.3353 78.2376 58.0873 78.6022 59.0352L73.3248 59.5547C73.1881 59.0899 72.9602 58.7481 72.6412 58.5293C72.2037 58.2377 71.6751 58.0918 71.0553 58.0918C70.4264 58.0918 69.9661 58.2058 69.6744 58.4336C69.3919 58.6524 69.2506 58.9212 69.2506 59.2403C69.2506 59.5957 69.4329 59.8646 69.7975 60.0469C70.1621 60.2292 70.955 60.3933 72.1764 60.5391C74.0266 60.7487 75.4029 61.0404 76.3053 61.4141C77.2076 61.7878 77.8958 62.321 78.3697 63.0137C78.8528 63.7064 79.0944 64.4675 79.0944 65.2969C79.0944 66.1354 78.8391 66.9512 78.3287 67.7442C77.8274 68.5371 77.0299 69.1706 75.9361 69.6446C74.8515 70.1094 73.3704 70.3418 71.4928 70.3418C68.8404 70.3418 66.9492 69.9636 65.819 69.2071C64.6979 68.4505 63.9778 67.375 63.6588 65.9805Z" fill="#F3F2ED"/>
<path d="M88.0773 65.3789L91.2082 66.0215C90.7889 67.4798 90.1372 68.5645 89.2531 69.2754C88.369 69.9772 87.2935 70.3281 86.0265 70.3281C84.2674 70.3281 82.9093 69.7403 81.9523 68.5645C80.8221 67.1973 80.257 65.2832 80.257 62.8223C80.257 60.3978 80.8267 58.4564 81.966 56.9981C82.9321 55.7676 84.1808 55.1524 85.7121 55.1524C87.4165 55.1524 88.7518 55.7813 89.7179 57.0391C90.8299 58.4792 91.3859 60.6029 91.3859 63.4102L91.3722 63.8477H83.4836C83.5018 64.9961 83.757 65.8848 84.2492 66.5137C84.7505 67.1426 85.3521 67.4571 86.0539 67.4571C87.0656 67.4571 87.7401 66.7643 88.0773 65.3789ZM88.2551 61.4961C88.2277 60.3659 87.9862 59.5183 87.5304 58.9531C87.0747 58.3789 86.5324 58.0918 85.9035 58.0918C85.2381 58.0918 84.6776 58.388 84.2218 58.9805C83.757 59.5821 83.5291 60.4206 83.5383 61.4961H88.2551Z" fill="#F3F2ED"/>
<path d="M92.6579 70L95.6931 55.4805H97.9353L97.4021 58.0098C98.3773 57.0163 99.2888 56.2917 100.136 55.836C100.984 55.3802 101.85 55.1524 102.734 55.1524C103.91 55.1524 104.83 55.4714 105.496 56.1094C106.17 56.7474 106.508 57.5996 106.508 58.666C106.508 59.2038 106.389 60.0515 106.152 61.209L104.306 70H101.832L103.76 60.7989C103.951 59.9056 104.047 59.2448 104.047 58.8164C104.047 58.3334 103.878 57.9414 103.541 57.6406C103.213 57.3399 102.734 57.1895 102.105 57.1895C100.838 57.1895 99.7081 57.6452 98.7146 58.5567C97.7302 59.4681 97.0056 61.0313 96.5408 63.2461L95.1326 70H92.6579ZM97.3884 53.293C97.6892 52.0808 98.0583 51.2696 98.4958 50.8594C98.9425 50.4401 99.4984 50.2305 100.164 50.2305C100.465 50.2305 100.756 50.2669 101.039 50.3399C101.33 50.4128 101.832 50.6087 102.543 50.9278C103.254 51.2377 103.741 51.3926 104.006 51.3926C104.215 51.3926 104.402 51.3197 104.566 51.1739C104.73 51.0189 104.867 50.7318 104.976 50.3125H106.631C106.539 51.2513 106.234 51.9851 105.715 52.5137C105.204 53.0423 104.612 53.3067 103.937 53.3067C103.573 53.3067 103.112 53.1882 102.556 52.9512C101.299 52.4043 100.524 52.1309 100.232 52.1309C99.9405 52.1309 99.699 52.2266 99.5076 52.418C99.3161 52.6003 99.1794 52.8919 99.0974 53.293H97.3884Z" fill="#F3F2ED"/>
<path d="M107.684 62.7403C107.684 60.0515 108.431 58.0599 109.926 56.7656C111.175 55.6901 112.697 55.1524 114.492 55.1524C116.489 55.1524 118.12 55.8086 119.387 57.1211C120.654 58.4245 121.287 60.2292 121.287 62.5352C121.287 64.4037 121.005 65.8757 120.44 66.9512C119.884 68.0176 119.068 68.847 117.992 69.4395C116.926 70.0319 115.759 70.3281 114.492 70.3281C112.46 70.3281 110.815 69.6765 109.557 68.3731C108.308 67.0697 107.684 65.1921 107.684 62.7403ZM110.213 62.7403C110.213 64.5996 110.619 65.9942 111.43 66.9239C112.241 67.8444 113.262 68.3047 114.492 68.3047C115.714 68.3047 116.73 67.8399 117.541 66.9102C118.352 65.9805 118.758 64.5632 118.758 62.6582C118.758 60.8627 118.348 59.5046 117.528 58.584C116.716 57.6543 115.705 57.1895 114.492 57.1895C113.262 57.1895 112.241 57.6498 111.43 58.5703C110.619 59.4909 110.213 60.8809 110.213 62.7403Z" fill="#F3F2ED"/>
<path d="M123.598 70V55.4805H125.813V57.6817C126.378 56.6517 126.898 55.9727 127.372 55.6446C127.855 55.3164 128.384 55.1524 128.958 55.1524C129.787 55.1524 130.63 55.4167 131.487 55.9453L130.64 58.2285C130.038 57.8731 129.436 57.6953 128.835 57.6953C128.297 57.6953 127.814 57.8594 127.386 58.1875C126.957 58.5065 126.652 58.9531 126.47 59.5274C126.196 60.4024 126.059 61.3594 126.059 62.3985V70H123.598Z" fill="#F3F2ED"/>
</svg>
